<?xml version="1.0" encoding="UTF-8" standalone="no"?>
<!-- Created with Inkscape (http://www.inkscape.org/) -->

<svg
   version="1.1"
   id="svg1"
   width="417.23892"
   height="156.91135"
   viewBox="0 0 417.23892 156.91135"
   xmlns="http://www.w3.org/2000/svg"
   xmlns:svg="http://www.w3.org/2000/svg">
  <defs
     id="defs1">
    <clipPath
       clipPathUnits="userSpaceOnUse"
       id="clipPath5">
      <path
         d="M 0,0 H 1562.5 V 1562.5 H 0 Z"
         transform="matrix(0,-0.31999999,0.31999999,0,-171.54687,163.98215)"
         clip-rule="evenodd"
         id="path5" />
    </clipPath>
    <clipPath
       clipPathUnits="userSpaceOnUse"
       id="clipPath8">
      <path
         d="M 70.554619,596.25171 H 436.17962 v 368.75 H 70.554619 Z"
         transform="matrix(2.6362378,0,0,2.6362378,332.50122,-1058.7267)"
         clip-rule="evenodd"
         id="path8" />
    </clipPath>
    <clipPath
       clipPathUnits="userSpaceOnUse"
       id="clipPath84">
      <path
         d="M -414.39141,-424.72199 H 336.95678 V 326.6262 h -751.34819 z"
         clip-rule="evenodd"
         id="path85"
         style="stroke-width:0.480863" />
    </clipPath>
    <clipPath
       clipPathUnits="userSpaceOnUse"
       id="clipPath85">
      <path
         d="m -147.01617,-205.65174 h 384.30349 v 384.3035 h -384.30349 z"
         clip-rule="evenodd"
         id="path86"
         style="stroke-width:0.245954" />
    </clipPath>
  </defs>
  <g
     id="g1"
     transform="translate(-22.577479,-171.48509)">
    <path
       id="path4"
       d="M 0.5,0.5 H 156.41135"
       style="fill:none;stroke:#ffffff;stroke-width:1;stroke-linecap:butt;stroke-linejoin:miter;stroke-miterlimit:10;stroke-dasharray:none;stroke-opacity:1"
       transform="rotate(90,-3.7823596,167.76451)"
       clip-path="url(#clipPath5)" />
    <path
       id="path7"
       d="M 1469.1602,1443.5508 1195.6406,893.41016 c -80.5312,72.03125 -151.4023,198.41014 -147.4492,301.96094 l 82.7578,163.1992 c 2.9727,5.8594 8.0391,10.3789 14.1992,12.668 l 291.5,108.4414 c 22.2032,8.2617 43.0625,-14.918 32.5118,-36.1289 z M 978.31641,1142.9102 c -0.70313,1.0312 -1.35157,2.1289 -1.92969,3.3086 l -103.83984,210.4531 c -2.94922,5.9765 -8.07422,10.6094 -14.32422,12.9375 l -296.8711,110.4297 c -22.07422,8.2226 -42.89453,-14.668 -32.64062,-35.8672 L 969.38672,533 c 9.45703,-19.55078 37.26168,-19.71094 46.93358,-0.26172 l 169.9688,341.88281 c -93.1993,66.61719 -166.1797,159.71871 -207.97269,268.28911"
       style="fill:#ffffff;fill-opacity:1;fill-rule:nonzero;stroke:none"
       transform="matrix(0.1213851,0,0,0.1213851,-40.360694,128.51365)"
       clip-path="url(#clipPath8)" />
    <path
       d="M 19.696492,-4.9011925 H 9.3563257 L 7.6990168,-0.00132257 H 0.63743957 L 10.65335,-27.707205 h 7.818175 l 10.02792,27.70588243 h -7.145644 z m -1.729366,-5.2001065 -3.434712,-10.148015 -3.398685,10.148015 z M 38.16708,-27.707205 v 16.57309 c 0,1.6573087 0.408323,2.9363189 1.224968,3.8310255 0.816645,0.897709 2.011589,1.3450623 3.590836,1.3450623 1.576245,0 2.7862,-0.4473533 3.626864,-1.3450623 0.846669,-0.8947066 1.273006,-2.1737168 1.273006,-3.8310255 v -16.57309 h 6.74933 v 16.537061 c 0,2.4739543 -0.528417,4.5696094 -1.585252,6.280961 -1.05083,1.7053469 -2.461944,2.9963665 -4.239348,3.8670542 -1.777404,0.86468292 -3.758969,1.29702438 -5.944695,1.29702438 -2.185726,0 -4.14027,-0.42633672 -5.860629,-1.28501488 -1.723361,-0.8556758 -3.083435,-2.1436931 -4.083225,-3.8670542 -1.002792,-1.7203587 -1.501185,-3.8190162 -1.501185,-6.2929705 v -16.537061 z m 31.572936,0 c 2.921308,0 5.476326,0.58246 7.662052,1.741376 2.185726,1.15291 3.873059,2.774191 5.068003,4.863841 1.200948,2.089651 1.801422,4.503557 1.801422,7.24172 0,2.714143 -0.600474,5.1250474 -1.801422,7.2297097 -1.194944,2.1076646 -2.891284,3.7409546 -5.092022,4.8998699 -2.194733,1.15291054 -4.740744,1.72936583 -7.638033,1.72936583 H 59.363821 V -27.707205 Z m -0.432341,21.8692727 c 2.552016,0 4.539585,-0.6965501 5.956705,-2.0896504 1.423124,-1.399105 2.137688,-3.3776673 2.137688,-5.9326853 0,-2.552016 -0.714564,-4.539586 -2.137688,-5.956705 -1.41712,-1.423124 -3.404689,-2.137688 -5.956705,-2.137688 H 66.113152 V -5.8379323 Z M 107.99323,-27.707205 v 5.404269 h -7.34981 V -0.00132257 H 93.894093 V -22.302936 h -7.337795 v -5.404269 z m 17.52484,27.70588243 -5.76455,-10.46026143 h -1.62128 v 10.46026143 h -6.74933 V -27.707205 h 11.32494 c 2.18573,0 4.0472,0.381302 5.58441,1.140902 1.54322,0.762602 2.69613,1.807427 3.45873,3.134475 0.7596,1.330051 1.1409,2.81022 1.1409,4.44351 0,1.843456 -0.52241,3.488755 -1.56123,4.935898 -1.03282,1.450145 -2.56703,2.473954 -4.59963,3.074428 l 6.40105,10.97666943 z M 118.13224,-15.241359 h 4.1793 c 1.23998,0 2.16771,-0.300237 2.7862,-0.900711 0.61548,-0.606479 0.92473,-1.465158 0.92473,-2.57003 0,-1.056835 -0.30925,-1.885489 -0.92473,-2.485964 -0.61849,-0.606479 -1.54622,-0.912721 -2.7862,-0.912721 h -4.1793 z m 36.22961,10.3401665 h -10.34017 l -1.65731,4.89986993 H 135.3028 L 145.31871,-27.707205 h 7.81817 l 10.02792,27.70588243 h -7.14564 z m -1.72937,-5.2001065 -3.43471,-10.148015 -3.39868,10.148015 z m 30.54313,10.09997643 -5.64446,-8.49070593 -4.97193,8.49070593 h -7.66205 l 8.88702,-14.08712643 -9.07917,-13.618756 h 7.8542 l 5.56039,8.358602 4.89987,-8.358602 h 7.66206 l -8.80296,13.967032 9.15123,13.73885043 z m 0,0"
       style="fill:#ffffff;fill-opacity:1;fill-rule:nonzero;stroke:none"
       aria-label="AUDTRAX"
       transform="matrix(1.301055,0,0,1.301055,191.27612,267.56422)"
       clip-path="url(#clipPath85)"
       id="path10" />
    <path
       d="m 3.56951,0.09499437 c -0.5517714,0 -1.0448436,-0.09391852 -1.4792168,-0.28175558 C 1.6500501,-0.38633808 1.3037255,-0.66222375 1.0571894,-1.0085483 0.82239306,-1.3666127 0.69325509,-1.7716363 0.68151527,-2.2294892 H 1.8554969 c 0.02935,0.3932839 0.187837,0.7219987 0.4695926,0.9861446 0.2934954,0.27001573 0.7102588,0.39915371 1.2444205,0.39915371 0.5165519,0 0.9215755,-0.12326807 1.2209408,-0.37567411 0.3111051,-0.2641459 0.4695927,-0.5987306 0.4695927,-1.0096242 0,-0.3111051 -0.093919,-0.569381 -0.2817556,-0.7748278 C 4.8021906,-3.2038939 4.585004,-3.3565115 4.3208582,-3.45043 4.0684521,-3.5560884 3.7162577,-3.6734865 3.2642748,-3.8026245 2.7125034,-3.9435023 2.2663904,-4.0843801 1.9259358,-4.2252579 1.5972209,-4.3778755 1.3154653,-4.6068019 1.080669,-4.9061672 0.84587269,-5.2172723 0.72847453,-5.6340358 0.72847453,-6.1505877 c 0,-0.4519829 0.11739816,-0.8511366 0.35219447,-1.1974612 0.2347963,-0.3580644 0.5517714,-0.63395 0.9626649,-0.8217871 0.4226334,-0.1995769 0.9039658,-0.3052352 1.4557372,-0.3052352 0.7806977,0 1.4205177,0.1995769 1.9253298,0.5869908 0.4989421,0.3932838 0.7806977,0.9157056 0.8452667,1.5731353 H 5.0722064 C 5.036987,-6.6436599 4.8726295,-6.9254155 4.5791341,-7.1602118 4.2797688,-7.406748 3.886485,-7.5358859 3.4051525,-7.5358859 c -0.4695926,0 -0.8452667,0.1173981 -1.1270223,0.3521944 -0.2817556,0.2347964 -0.4226333,0.5635112 -0.4226333,0.9861446 0,0.316975 0.082179,0.5635111 0.2582759,0.7513482 0.1702273,0.187837 0.381544,0.3404547 0.6339501,0.446113 0.2465361,0.093919 0.5987306,0.2054468 1.0565834,0.3287148 0.5459014,0.1584876 0.9861445,0.3169751 1.3148594,0.4695927 0.3404546,0.1408778 0.63395,0.3698042 0.8687463,0.6809093 0.2465362,0.2993653 0.3756741,0.7161288 0.3756741,1.2444205 0,0.4108935 -0.1115282,0.7924375 -0.3287148,1.1505019 C 5.8118148,-0.76201218 5.4948398,-0.46851679 5.0722064,-0.23372047 4.649573,-0.01066397 4.1447609,0.09499437 3.56951,0.09499437 Z M 9.0637438,-7.465447 v 2.7940761 h 3.0523522 v 0.892226 H 9.0637438 v 2.88799474 H 12.46829 V 0.00107585 H 7.9602011 V -8.3811527 H 12.46829 v 0.9157057 z m 6.1340542,-0.892226 v 5.2829171 c 0,0.7513482 0.176097,1.3089895 0.540031,1.6670538 0.358064,0.3639343 0.868746,0.54003157 1.526176,0.54003157 0.63982,0 1.138762,-0.17609727 1.502697,-0.54003157 0.358064,-0.3580643 0.540031,-0.9157056 0.540031,-1.6670538 V -8.357673 h 1.103543 v 5.2829171 c 0,0.6926491 -0.140878,1.2796399 -0.422634,1.7609724 -0.281755,0.46959261 -0.669169,0.82178708 -1.150502,1.0565834 -0.469592,0.23479632 -1.003754,0.35219447 -1.596614,0.35219447 -0.598731,0 -1.127023,-0.11739815 -1.596615,-0.35219447 -0.469593,-0.23479632 -0.845267,-0.58699079 -1.127023,-1.0565834 -0.281755,-0.4813325 -0.422633,-1.0683233 -0.422633,-1.7609724 V -8.357673 Z m 15.173712,6.5038579 h -3.639343 l -0.68091,1.85489095 h -1.150502 l 3.028873,-8.31178965 h 1.24442 l 3.028873,8.31178965 h -1.173982 z m -0.305236,-0.892226 -1.526176,-4.2263337 -1.502696,4.2263337 z m 4.519829,-5.6116319 v 5.2829171 c 0,0.7513482 0.176098,1.3089895 0.540032,1.6670538 0.358064,0.3639343 0.868746,0.54003157 1.526176,0.54003157 0.63982,0 1.138762,-0.17609727 1.502696,-0.54003157 0.358065,-0.3580643 0.540032,-0.9157056 0.540032,-1.6670538 V -8.357673 h 1.103543 v 5.2829171 c 0,0.6926491 -0.140878,1.2796399 -0.422634,1.7609724 -0.281755,0.46959261 -0.669169,0.82178708 -1.150502,1.0565834 -0.469592,0.23479632 -1.003754,0.35219447 -1.596615,0.35219447 -0.59873,0 -1.127022,-0.11739815 -1.596615,-0.35219447 C 34.562624,-0.49199642 34.18695,-0.84419089 33.905194,-1.3137835 33.623439,-1.795116 33.482561,-2.3821068 33.482561,-3.0747559 V -8.357673 Z m 9.626649,0 c 0.903966,0 1.696404,0.1760972 2.371443,0.5165519 0.66917,0.3287148 1.179852,0.8159172 1.526176,1.4557371 0.358065,0.6280802 0.540032,1.3735585 0.540032,2.230565 0,0.8452668 -0.181967,1.5907451 -0.540032,2.230565 -0.346324,0.6280802 -0.857006,1.10354274 -1.526176,1.43225758 -0.675039,0.32871485 -1.467477,0.49307227 -2.371443,0.49307227 H 41.606513 V -8.357673 Z m 0,7.46652284 c 1.080064,0 1.901851,-0.28175554 2.465362,-0.84526674 0.575251,-0.575251 0.868746,-1.3852983 0.868746,-2.4184021 0,-1.0448436 -0.293495,-1.8607608 -0.868746,-2.4418817 -0.563511,-0.5752509 -1.385298,-0.8687463 -2.465362,-0.8687463 h -1.502696 v 6.57429684 z M 51.197943,-8.357673 V 0.00107585 H 50.0944 V -8.357673 Z m 7.01454,0 v 0.892226 H 55.911479 V 0.00107585 H 54.831416 V -7.465447 h -2.301004 v -0.892226 z m 5.124429,8.45266737 c -0.786567,0 -1.496826,-0.17609723 -2.136646,-0.54003152 -0.64569,-0.37567411 -1.150502,-0.88048615 -1.526176,-1.52617605 -0.363934,-0.6574297 -0.540032,-1.3911682 -0.540032,-2.2070854 0,-0.8100473 0.176098,-1.5496557 0.540032,-2.2070854 0.375674,-0.6574297 0.880486,-1.1622417 1.526176,-1.526176 0.63982,-0.3580644 1.350079,-0.5400316 2.136646,-0.5400316 0.780698,0 1.490957,0.1819672 2.136647,0.5400316 0.63982,0.3639343 1.138762,0.8687463 1.502696,1.526176 0.375674,0.6456899 0.563512,1.3794284 0.563512,2.2070854 0,0.8159172 -0.187838,1.5496557 -0.563512,2.2070854 -0.363934,0.6456899 -0.862876,1.15050194 -1.502696,1.52617605 -0.64569,0.36393429 -1.355949,0.54003152 -2.136647,0.54003152 z m 0,-0.9626649 c 0.575251,0 1.103543,-0.12913797 1.573136,-0.39915377 0.469592,-0.2817555 0.833527,-0.6691695 1.103542,-1.1739815 0.264146,-0.4989422 0.399154,-1.0800631 0.399154,-1.7374928 0,-0.6691695 -0.135008,-1.2561603 -0.399154,-1.7609724 -0.270015,-0.4989421 -0.63395,-0.8804862 -1.103542,-1.1505019 -0.457853,-0.2817556 -0.980275,-0.4226334 -1.573136,-0.4226334 -0.59873,0 -1.127022,0.1408778 -1.596614,0.4226334 -0.457853,0.2700157 -0.821788,0.6515598 -1.103543,1.1505019 -0.270016,0.5048121 -0.399154,1.0918029 -0.399154,1.7609724 0,0.6574297 0.129138,1.2385506 0.399154,1.7374928 0.281755,0.504812 0.65743,0.892226 1.127022,1.1739815 0.469593,0.2700158 0.992015,0.39915377 1.573135,0.39915377 z M 73.380325,0.00107585 71.384556,-3.4269504 H 70.069697 V 0.00107585 H 68.966154 V -8.357673 h 2.700158 c 0.63982,0 1.173981,0.1115282 1.596615,0.3287148 0.434373,0.2054468 0.763088,0.4930723 0.986144,0.8687464 0.217187,0.3639343 0.328715,0.7865676 0.328715,1.2679001 0,0.5635112 -0.164357,1.0741931 -0.493072,1.5261761 -0.328715,0.440243 -0.833527,0.7278685 -1.502697,0.8687463 l 2.113167,3.49846515 z M 70.069697,-4.2956968 h 1.596615 c 0.592861,0 1.038974,-0.1408777 1.338339,-0.4226333 0.293495,-0.2934954 0.446113,-0.6867793 0.446113,-1.1739816 0,-0.4989422 -0.152618,-0.8804862 -0.446113,-1.150502 C 72.722895,-7.3245692 72.276782,-7.465447 71.666312,-7.465447 H 70.069697 Z M 82.073659,-8.357673 c 0.903965,0 1.696403,0.1760972 2.371442,0.5165519 0.66917,0.3287148 1.179852,0.8159172 1.526176,1.4557371 0.358065,0.6280802 0.540032,1.3735585 0.540032,2.230565 0,0.8452668 -0.181967,1.5907451 -0.540032,2.230565 -0.346324,0.6280802 -0.857006,1.10354274 -1.526176,1.43225758 -0.675039,0.32871485 -1.467477,0.49307227 -2.371442,0.49307227 h -2.60624 V -8.357673 Z m 0,7.46652284 c 1.080063,0 1.90185,-0.28175554 2.465361,-0.84526674 0.575251,-0.575251 0.868746,-1.3852983 0.868746,-2.4184021 0,-1.0448436 -0.293495,-1.8607608 -0.868746,-2.4418817 -0.563511,-0.5752509 -1.385298,-0.8687463 -2.465361,-0.8687463 h -1.502697 v 6.57429684 z m 6.97932,-6.57429684 v 2.7940761 h 3.052352 v 0.892226 h -3.052352 v 2.88799474 h 3.404547 v 0.89222601 h -4.50809 V -8.3811527 h 4.50809 v 0.9157057 z m 12.461811,3.1697502 c 0.2935,0.046959 0.56938,0.1760973 0.82179,0.3756742 0.24654,0.187837 0.44611,0.4343731 0.58699,0.7278685 0.15262,0.2993653 0.2348,0.6104705 0.2348,0.9391853 0,0.4402431 -0.11153,0.8335269 -0.32872,1.1739816 -0.20544,0.32871483 -0.51655,0.5987306 -0.93918,0.79830747 -0.4109,0.18783705 -0.89223,0.28175558 -1.45574,0.28175558 H 97.31194 V -8.357673 h 3.00539 c 0.56351,0 1.03898,0.093919 1.43226,0.2817555 0.40502,0.1878371 0.71026,0.446113 0.91571,0.7748279 0.19957,0.316975 0.30523,0.6691695 0.30523,1.0565834 0,0.5048121 -0.13501,0.9157057 -0.39915,1.2444205 -0.27002,0.316975 -0.62221,0.5517713 -1.05659,0.7043889 z m -3.099308,-0.446113 h 1.831408 c 0.51656,0 0.91571,-0.1173981 1.19746,-0.3521944 0.28176,-0.2465362 0.42264,-0.5869908 0.42264,-1.0096242 0,-0.4226334 -0.14088,-0.7513482 -0.42264,-0.9861445 -0.28175,-0.2465362 -0.69264,-0.3756741 -1.22094,-0.3756741 h -1.807928 z m 1.925328,3.85065964 c 0.5459,0 0.96854,-0.12326804 1.2679,-0.37567414 0.31111,-0.2641458 0.46959,-0.6222102 0.46959,-1.080063 0,-0.4695927 -0.16435,-0.8335269 -0.49307,-1.1035427 -0.31697,-0.2641459 -0.73961,-0.3991538 -1.2679,-0.3991538 h -1.901848 v 2.95843364 z m 8.12982,0.98614453 c -0.78656,0 -1.49682,-0.17609723 -2.13664,-0.54003152 -0.64569,-0.37567411 -1.1505,-0.88048615 -1.52618,-1.52617605 -0.36393,-0.6574297 -0.54003,-1.3911682 -0.54003,-2.2070854 0,-0.8100473 0.1761,-1.5496557 0.54003,-2.2070854 0.37568,-0.6574297 0.88049,-1.1622417 1.52618,-1.526176 0.63982,-0.3580644 1.35008,-0.5400316 2.13664,-0.5400316 0.7807,0 1.49096,0.1819672 2.13665,0.5400316 0.63982,0.3639343 1.13876,0.8687463 1.5027,1.526176 0.37567,0.6456899 0.56351,1.3794284 0.56351,2.2070854 0,0.8159172 -0.18784,1.5496557 -0.56351,2.2070854 -0.36394,0.6456899 -0.86288,1.15050194 -1.5027,1.52617605 -0.64569,0.36393429 -1.35595,0.54003152 -2.13665,0.54003152 z m 0,-0.9626649 c 0.57526,0 1.10355,-0.12913797 1.57314,-0.39915377 0.46959,-0.2817555 0.83353,-0.6691695 1.10354,-1.1739815 0.26415,-0.4989422 0.39916,-1.0800631 0.39916,-1.7374928 0,-0.6691695 -0.13501,-1.2561603 -0.39916,-1.7609724 -0.27001,-0.4989421 -0.63395,-0.8804862 -1.10354,-1.1505019 -0.45785,-0.2817556 -0.98027,-0.4226334 -1.57314,-0.4226334 -0.59873,0 -1.12702,0.1408778 -1.59661,0.4226334 -0.45785,0.2700157 -0.82179,0.6515598 -1.10354,1.1505019 -0.27002,0.5048121 -0.39916,1.0918029 -0.39916,1.7609724 0,0.6574297 0.12914,1.2385506 0.39916,1.7374928 0.28175,0.504812 0.65743,0.892226 1.12702,1.1739815 0.46959,0.2700158 0.99201,0.39915377 1.57313,0.39915377 z m 6.73279,-0.0234796 h 2.93495 v 0.89222601 h -4.03849 V -8.357673 h 1.10354 z m 6.73278,0.98614453 c -0.55177,0 -1.04484,-0.09391852 -1.47921,-0.28175558 -0.44025,-0.19957687 -0.78657,-0.47546254 -1.03311,-0.82178712 -0.23479,-0.3580644 -0.36393,-0.763088 -0.37567,-1.2209409 h 1.17398 c 0.0294,0.3932839 0.18784,0.7219987 0.46959,0.9861446 0.2935,0.27001576 0.71026,0.39915374 1.24442,0.39915374 0.51656,0 0.92158,-0.12326807 1.22094,-0.37567414 0.31111,-0.2641459 0.4696,-0.5987306 0.4696,-1.0096242 0,-0.3111051 -0.0939,-0.569381 -0.28176,-0.7748278 -0.1761,-0.1995769 -0.39328,-0.3521945 -0.65743,-0.446113 -0.2524,-0.1056584 -0.6046,-0.2230565 -1.05658,-0.3521945 -0.55177,-0.1408778 -0.99789,-0.2817556 -1.33834,-0.4226334 -0.32872,-0.1526176 -0.61047,-0.381544 -0.84527,-0.6809093 -0.23479,-0.3111051 -0.35219,-0.7278686 -0.35219,-1.2444205 0,-0.4519829 0.1174,-0.8511366 0.35219,-1.1974612 0.2348,-0.3580644 0.55177,-0.63395 0.96267,-0.8217871 0.42263,-0.1995769 0.90396,-0.3052352 1.45573,-0.3052352 0.7807,0 1.42052,0.1995769 1.92533,0.5869908 0.49895,0.3932838 0.7807,0.9157056 0.84527,1.5731353 h -1.19746 c -0.0352,-0.3287148 -0.19958,-0.6104704 -0.49307,-0.8452667 -0.29937,-0.2465362 -0.69265,-0.3756741 -1.17398,-0.3756741 -0.4696,0 -0.84527,0.1173981 -1.12703,0.3521944 -0.28175,0.2347964 -0.42263,0.5635112 -0.42263,0.9861446 0,0.316975 0.0822,0.5635111 0.25828,0.7513482 0.17022,0.187837 0.38154,0.3404547 0.63395,0.446113 0.24653,0.093919 0.59873,0.2054468 1.05658,0.3287148 0.5459,0.1584876 0.98614,0.3169751 1.31486,0.4695927 0.34045,0.1408778 0.63395,0.3698042 0.86875,0.6809093 0.24653,0.2993653 0.37567,0.7161288 0.37567,1.2444205 0,0.4108935 -0.11153,0.7924375 -0.32872,1.1505019 -0.22305,0.36393435 -0.54003,0.65742974 -0.96266,0.89222606 -0.42263,0.2230565 -0.92745,0.32871484 -1.5027,0.32871484 z m 8.19439,0 c -0.78656,0 -1.49682,-0.17609723 -2.13664,-0.54003152 -0.64569,-0.37567411 -1.1505,-0.88048618 -1.52618,-1.52617608 -0.36393,-0.6574297 -0.54003,-1.3911682 -0.54003,-2.2070854 0,-0.8100473 0.1761,-1.5496557 0.54003,-2.2070854 0.37568,-0.6574297 0.88049,-1.1622417 1.52618,-1.526176 0.63982,-0.3580644 1.35008,-0.5400316 2.13664,-0.5400316 0.7807,0 1.49096,0.1819672 2.13665,0.5400316 0.63982,0.3639343 1.13876,0.8687463 1.5027,1.526176 0.37567,0.6456899 0.56351,1.3794284 0.56351,2.2070854 0,0.8159172 -0.18784,1.5496557 -0.56351,2.2070854 -0.36394,0.6456899 -0.86288,1.15050197 -1.5027,1.52617608 -0.64569,0.36393429 -1.35595,0.54003152 -2.13665,0.54003152 z m 0,-0.9626649 c 0.57526,0 1.10355,-0.12913797 1.57314,-0.3991538 0.46959,-0.2817555 0.83353,-0.6691695 1.10354,-1.1739815 0.26415,-0.4989422 0.39916,-1.0800631 0.39916,-1.7374928 0,-0.6691695 -0.13501,-1.2561603 -0.39916,-1.7609724 -0.27001,-0.4989421 -0.63395,-0.8804862 -1.10354,-1.1505019 -0.45785,-0.2817556 -0.98027,-0.4226334 -1.57314,-0.4226334 -0.59873,0 -1.12702,0.1408778 -1.59661,0.4226334 -0.45785,0.2700157 -0.82179,0.6515598 -1.10354,1.1505019 -0.27002,0.5048121 -0.39916,1.0918029 -0.39916,1.7609724 0,0.6574297 0.12914,1.2385506 0.39916,1.7374928 0.28175,0.504812 0.65743,0.892226 1.12702,1.1739815 0.46959,0.27001583 0.99201,0.3991538 1.57313,0.3991538 z m 0,0"
       style="fill:#b4b4b4;fill-opacity:1;fill-rule:nonzero;stroke:none"
       aria-label="SEU AUDITOR DE BOLSO"
       transform="matrix(0.6654704,0,0,0.6654704,275.76522,282.63991)"
       clip-path="url(#clipPath84)"
       id="path13" />
    <path
       id="path15"
       d="M 22.577479,309.19944 H 139.2763 V 190.80054 H 22.577479 Z"
       style="fill:#000000;fill-opacity:0;fill-rule:nonzero;stroke:none;stroke-width:1.33333" />
    <path
       id="path16"
       d="m 163.0439,328.39644 h 0.88156 V 171.48509 h -0.88156 z"
       style="fill:#000000;fill-opacity:0;fill-rule:nonzero;stroke:none;stroke-width:1.33333" />
  </g>
</svg>
