<?xml version="1.0" encoding="UTF-8" standalone="no"?>
<!-- Created with Inkscape (http://www.inkscape.org/) -->

<svg
   version="1.1"
   id="svg1"
   width="435.51636"
   height="141.18005"
   viewBox="0 0 435.51636 141.18005"
   xmlns="http://www.w3.org/2000/svg"
   xmlns:svg="http://www.w3.org/2000/svg">
  <defs
     id="defs1">
    <clipPath
       clipPathUnits="userSpaceOnUse"
       id="clipPath52">
      <path
         d="M 0,0 H 932 V 267 H 0 Z"
         transform="matrix(0.20626651,0,0,0.20626651,-0.13143488,-41.013447)"
         id="path52" />
    </clipPath>
    <clipPath
       clipPathUnits="userSpaceOnUse"
       id="clipPath54">
      <path
         d="M 0,0 H 1562.5 V 1562.5 H 0 Z"
         transform="matrix(0.31999999,0,0,0.31999999,1560,0)"
         clip-rule="evenodd"
         id="path54" />
    </clipPath>
    <clipPath
       clipPathUnits="userSpaceOnUse"
       id="clipPath55">
      <path
         d="M 0,0 H 338 V 43 H 0 Z"
         transform="matrix(0.40326973,0,0,0.40326973,-0.99508203,-12.0479)"
         id="path55" />
    </clipPath>
    <clipPath
       clipPathUnits="userSpaceOnUse"
       id="clipPath57">
      <path
         d="M 0,0 H 1562.5 V 1562.5 H 0 Z"
         transform="matrix(0.31999999,0,0,0.31999999,1560,0)"
         clip-rule="evenodd"
         id="path57" />
    </clipPath>
    <clipPath
       clipPathUnits="userSpaceOnUse"
       id="clipPath91">
      <path
         d="M 337.68811,-726.3812 H 3792.1071 V 2728.0377 H 337.68811 Z"
         clip-rule="evenodd"
         id="path91"
         style="stroke-width:2.21083" />
    </clipPath>
  </defs>
  <g
     id="g45"
     transform="translate(-1586.1711,-179.40996)">
    <path
       id="path49"
       d="M 1469.1602,1443.5508 1195.6406,893.41016 c -80.5312,72.03125 -151.4023,198.41014 -147.4492,301.96094 l 82.7578,163.1992 c 2.9727,5.8594 8.0391,10.3789 14.1992,12.668 l 291.5,108.4414 c 22.2032,8.2617 43.0625,-14.918 32.5118,-36.1289 z M 978.31641,1142.9102 c -0.70313,1.0312 -1.35157,2.1289 -1.92969,3.3086 l -103.83984,210.4531 c -2.94922,5.9765 -8.07422,10.6094 -14.32422,12.9375 l -296.8711,110.4297 c -22.07422,8.2226 -42.89453,-14.668 -32.64062,-35.8672 L 969.38672,533 c 9.45703,-19.55078 37.26168,-19.71094 46.93358,-0.26172 l 169.9688,341.88281 c -93.1993,66.61719 -166.1797,159.71871 -207.97269,268.28911"
       style="fill:#000000;fill-opacity:1;fill-rule:nonzero;stroke:none"
       transform="matrix(0.14474214,0,0,0.14474214,1511.1223,105.13797)"
       clip-path="url(#clipPath91)" />
    <g
       id="g53"
       clip-path="url(#clipPath54)">
      <path
         d="M 19.700245,-4.8954479 H 9.3567039 L 7.6948887,-6.467271e-4 H 0.63469195 L 10.655941,-27.707638 h 7.815567 L 28.502829,-6.467271e-4 h -7.150841 z m -1.742389,-5.2070211 -3.434418,-10.142108 -3.394131,10.142108 z m 20.206163,-17.605169 v 16.577865 c 0,1.6592975 0.405382,2.9358737 1.218664,3.827211 0.818318,0.8938551 2.016839,1.3395238 3.595564,1.3395238 1.58376,0 2.794871,-0.4456687 3.63585,-1.3395238 0.838461,-0.8913373 1.258951,-2.1679135 1.258951,-3.827211 v -16.577865 h 6.758048 v 16.537579 c 0,2.4725794 -0.528759,4.5624379 -1.581242,6.2746111 -1.055001,1.7121733 -2.472579,3.001339 -4.250218,3.8674972 -1.772603,0.86615826 -3.751674,1.29923737 -5.932177,1.29923737 -2.190574,0 -4.146984,-0.42552541 -5.871747,-1.27909417 -1.719727,-0.8510508 -3.079394,-2.1402165 -4.079001,-3.8674972 -1.002125,-1.7247627 -1.500669,-3.8221749 -1.500669,-6.2947543 v -16.537579 z m 31.582042,0 c 2.920766,0 5.471401,0.581635 7.654422,1.742388 2.180503,1.155717 3.870015,2.779763 5.066018,4.874658 1.201039,2.089858 1.802818,4.49949 1.802818,7.231414 0,2.714298 -0.601779,5.1239299 -1.802818,7.2314137 -1.196003,2.102448 -2.890551,3.7340484 -5.086162,4.8948011 -2.19561,1.15571696 -4.741209,1.7323164729 -7.634278,1.7323164729 H 59.362234 V -27.707638 Z m -0.433079,21.865459 c 2.550635,0 4.534741,-0.6949409 5.95232,-2.0848227 1.422614,-1.3949176 2.135181,-3.3739883 2.135181,-5.9321763 0,-2.550635 -0.712567,-4.534742 -2.135181,-5.95232 -1.417579,-1.422615 -3.401685,-2.135181 -5.95232,-2.135181 h -3.202771 v 16.1045 z m 38.674968,-21.865459 v 5.408453 h -7.3422 V -6.467271e-4 H 93.897775 V -22.299185 h -7.342201 v -5.408453 z M 125.51255,-6.467271e-4 119.75159,-10.465047 h -1.62153 V -6.467271e-4 h -6.74797 V -27.707638 h 11.33055 c 2.18051,0 4.04124,0.382721 5.57967,1.148163 1.54348,0.760406 2.69416,1.802818 3.45457,3.13227 0.76544,1.329452 1.14816,2.809978 1.14816,4.441579 0,1.840586 -0.52121,3.484776 -1.5611,4.935087 -1.04241,1.445276 -2.57581,2.47258 -4.60272,3.081912 l 6.39547,10.9679802729 z M 118.13006,-15.238989 h 4.18979 c 1.23377,0 2.16036,-0.302148 2.77976,-0.906444 0.61689,-0.604297 0.92659,-1.460383 0.92659,-2.56826 0,-1.047447 -0.3097,-1.873319 -0.92659,-2.477615 -0.6194,-0.609333 -1.54599,-0.916517 -2.77976,-0.916517 h -4.18979 z m 36.23765,10.3435411 h -10.34355 l -1.66181,4.8948011729 h -7.0602 L 145.3234,-27.707638 h 7.81557 l 10.03132,27.7069912729 h -7.15084 z m -1.74239,-5.2070211 -3.43442,-10.142108 -3.39413,10.142108 z m 30.5497,10.1018222729 -5.6401,-8.4903649729 -4.97537,8.4903649729 h -7.65443 L 173.77821,-14.090825 164.70369,-27.707638 h 7.85586 l 5.56959,8.369505 4.88473,-8.369505 h 7.6645 l -8.80259,13.969319 9.15509,13.7376722729 z m 0,0"
         style="fill:#000000;fill-opacity:1;fill-rule:nonzero;stroke:none"
         aria-label="AUDTRAX"
         transform="matrix(1.5513909,0,0,1.5513909,1725.3239,265.54788)"
         clip-path="url(#clipPath52)"
         id="path53" />
    </g>
    <g
       id="g56"
       clip-path="url(#clipPath57)">
      <path
         d="m 3.564962,0.0809241 c -0.5513453,0 -1.043618,-0.09845453 -1.4768179,-0.29536358 C 1.6549442,-0.41134854 1.3103533,-0.67717576 1.064217,-1.0217666 0.81315797,-1.3762029 0.69008982,-1.7749437 0.69008982,-2.2229118 H 1.8518532 c 0.039382,0.3938181 0.1969091,0.7236407 0.4725818,0.9845452 0.2855181,0.26582725 0.6990271,0.39381814 1.240527,0.39381814 0.521809,0 0.935318,-0.12306816 1.2405271,-0.37412724 0.3002863,-0.2609045 0.4528908,-0.5956499 0.4528908,-1.0042361 0,-0.3249 -0.093532,-0.5907272 -0.2756727,-0.7876363 C 4.8104118,-3.2074571 4.5938118,-3.3551389 4.3329073,-3.4634389 4.0670801,-3.5668161 3.7126438,-3.6800388 3.2695984,-3.7981843 2.7182531,-3.9409433 2.270285,-4.0837024 1.9306169,-4.2313842 1.6007942,-4.3741433 1.3201988,-4.595666 1.0839079,-4.900875 0.84761706,-5.2159295 0.72947163,-5.6294385 0.72947163,-6.141402 c 0,-0.4578136 0.10829998,-0.8663999 0.33474537,-1.2208362 0.2362909,-0.3544363 0.5611908,-0.6202635 0.9845453,-0.8073271 0.4184317,-0.196909 0.9057816,-0.2953636 1.457127,-0.2953636 0.7876362,0 1.4275906,0.1969091 1.9297087,0.5907272 0.4971954,0.3938181 0.7777908,0.9156271 0.846709,1.5555815 H 5.0811617 C 5.0417799,-6.6336747 4.8694845,-6.9093473 4.5691982,-7.1456382 4.2639892,-7.3917745 3.870171,-7.5197654 3.3877439,-7.5197654 c -0.4479681,0 -0.8171726,0.1181454 -1.1026907,0.3544363 -0.2904409,0.2264454 -0.4332,0.5513453 -0.4332,0.9845453 0,0.305209 0.083686,0.5513453 0.2559818,0.7482544 0.1673727,0.1870636 0.3790499,0.3298226 0.630109,0.4331999 0.2461363,0.093532 0.6005726,0.2067545 1.0633089,0.3347454 0.5513453,0.1575272 0.989468,0.3101317 1.3192906,0.4528908 0.3396682,0.1476818 0.630109,0.3741272 0.8663999,0.6891817 0.2461363,0.305209 0.3741272,0.718718 0.3741272,1.240527 0,0.4085863 -0.1132227,0.7974817 -0.3347454,1.1617635 C 5.814648,-0.76578484 5.4946707,-0.47534398 5.0614708,-0.2538213 4.6381164,-0.02737588 4.140921,0.0809241 3.564962,0.0809241 Z m 5.4888399,-7.5416168 v 2.7764177 h 3.0520901 v 0.9057816 H 9.0538019 v 2.87487222 H 12.460329 V 0.00216048 H 7.9708021 V -8.3664743 h 4.4895269 v 0.9057816 z m 6.1337171,-0.8860907 v 5.2771626 c 0,0.7482544 0.182141,1.3094452 0.551345,1.673727 0.364282,0.3544363 0.871323,0.53165443 1.5162,0.53165443 0.639954,0 1.142073,-0.17721813 1.496509,-0.53165443 0.364282,-0.3642818 0.551345,-0.9254726 0.551345,-1.673727 v -5.2771626 h 1.083 v 5.2574717 c 0,0.6990272 -0.137836,1.2897543 -0.413509,1.7721815 -0.275673,0.47258174 -0.659645,0.82701804 -1.142073,1.0633089 -0.472581,0.22644542 -1.004236,0.3347454 -1.594963,0.3347454 -0.590727,0 -1.122381,-0.10829998 -1.594963,-0.3347454 -0.472582,-0.23629086 -0.846709,-0.59072716 -1.122382,-1.0633089 -0.275672,-0.4824272 -0.413509,-1.0731543 -0.413509,-1.7721815 v -5.2574717 z m 15.186611,6.4979988 h -3.642818 l -0.66949,1.85094508 h -1.161764 l 3.0324,-8.30956208 h 1.260217 l 2.993018,8.30956208 h -1.142072 z m -0.315055,-0.8860908 -1.516199,-4.2335447 -1.5162,4.2335447 z m 4.523986,-5.611908 v 5.2771626 c 0,0.7482544 0.182141,1.3094452 0.551345,1.673727 0.364282,0.3544363 0.871323,0.53165443 1.5162,0.53165443 0.639954,0 1.142072,-0.17721813 1.496509,-0.53165443 0.364281,-0.3642818 0.551345,-0.9254726 0.551345,-1.673727 v -5.2771626 h 1.083 v 5.2574717 c 0,0.6990272 -0.137836,1.2897543 -0.413509,1.7721815 -0.275673,0.47258174 -0.659645,0.82701804 -1.142073,1.0633089 -0.472581,0.22644542 -1.004236,0.3347454 -1.594963,0.3347454 -0.590727,0 -1.122382,-0.10829998 -1.594963,-0.3347454 -0.472582,-0.23629086 -0.846709,-0.59072716 -1.122382,-1.0633089 -0.275673,-0.4824272 -0.413509,-1.0731543 -0.413509,-1.7721815 v -5.2574717 z m 9.633775,0 c 0.905782,0 1.693418,0.1722954 2.362909,0.5119635 0.669491,0.3298227 1.181454,0.8171726 1.535891,1.457127 0.354436,0.630109 0.531654,1.3734407 0.531654,2.2250723 0,0.8565544 -0.177218,1.5949634 -0.531654,2.2250723 -0.354437,0.6202636 -0.8664,1.09776802 -1.535891,1.43743614 -0.669491,0.32982267 -1.457127,0.49227264 -2.362909,0.49227264 H 41.617637 V -8.3467834 Z m 0,7.44316222 c 1.073155,0 1.89525,-0.28059542 2.461364,-0.84670892 0.575959,-0.575959 0.866399,-1.3783634 0.866399,-2.4022905 0,-1.0337725 -0.29044,-1.8410996 -0.866399,-2.4219813 -0.566114,-0.5907272 -1.388209,-0.8860908 -2.461364,-0.8860908 h -1.516199 v 6.55707152 z m 6.965658,-7.44316222 v 8.34894388 h -1.083 V -8.3467834 Z m 7.009962,0 v 0.8860907 H 55.908311 V 0.00216048 H 54.825312 V -7.4606927 h -2.284145 v -0.8860907 z m 5.134404,8.4277075 c -0.777791,0 -1.486663,-0.17721815 -2.126618,-0.53165445 -0.630109,-0.36428175 -1.137149,-0.87132255 -1.516199,-1.51619975 -0.369205,-0.6547226 -0.551346,-1.3980543 -0.551346,-2.2250723 0,-0.8122498 0.182141,-1.5408133 0.551346,-2.1856905 0.37905,-0.6547226 0.88609,-1.1617634 1.516199,-1.5161997 0.639955,-0.3642818 1.348827,-0.5513454 2.126618,-0.5513454 0.787636,0 1.496509,0.1870636 2.126618,0.5513454 0.639954,0.3544363 1.146995,0.8614771 1.5162,1.5161997 0.364281,0.6448772 0.551345,1.3734407 0.551345,2.1856905 0,0.827018 -0.187064,1.5703497 -0.551345,2.2250723 -0.369205,0.6448772 -0.876246,1.151918 -1.5162,1.51619975 -0.630109,0.3544363 -1.338982,0.53165445 -2.126618,0.53165445 z m 0,-0.94516347 c 0.590727,0 1.112536,-0.12799088 1.575273,-0.39381813 0.472581,-0.2756727 0.836863,-0.6596453 1.10269,-1.1617634 0.275673,-0.5119635 0.413509,-1.1026907 0.413509,-1.7721815 0,-0.6694908 -0.137836,-1.2503725 -0.413509,-1.7524906 -0.265827,-0.4971953 -0.630109,-0.8762453 -1.10269,-1.1420725 -0.462737,-0.2756727 -0.984546,-0.413509 -1.575273,-0.413509 -0.590727,0 -1.117459,0.1378363 -1.575272,0.413509 -0.462737,0.2658272 -0.827018,0.6448772 -1.102691,1.1420725 -0.265827,0.5021181 -0.393818,1.0829998 -0.393818,1.7524906 0,0.6694908 0.127991,1.260218 0.393818,1.7721815 0.275673,0.5021181 0.639954,0.8860907 1.102691,1.1617634 0.472581,0.26582725 0.99439,0.39381813 1.575272,0.39381813 z M 73.369222,0.00216048 71.38044,-3.4240571 h -1.31929 v 3.42621758 h -1.083 V -8.3467834 h 2.697654 c 0.630109,0 1.161763,0.1082999 1.594963,0.3150544 0.4332,0.2116773 0.753177,0.5021181 0.964855,0.8663999 0.221522,0.3692045 0.334745,0.7876362 0.334745,1.2602179 0,0.5808817 -0.167373,1.0928453 -0.492273,1.5358907 -0.329822,0.4331999 -0.827018,0.7236407 -1.496508,0.8663998 l 2.106927,3.50498118 z M 70.06115,-4.2904569 h 1.614654 c 0.590727,0 1.02885,-0.1427591 1.319291,-0.4331999 0.300286,-0.2855182 0.452891,-0.6793363 0.452891,-1.1814544 0,-0.4824271 -0.147682,-0.8663998 -0.4332,-1.1420725 -0.290441,-0.2756727 -0.738409,-0.413509 -1.338982,-0.413509 H 70.06115 Z m 12.016375,-4.0563265 c 0.905781,0 1.693418,0.1722954 2.362908,0.5119635 0.669491,0.3298227 1.181455,0.8171726 1.535891,1.457127 0.354436,0.630109 0.531655,1.3734407 0.531655,2.2250723 0,0.8565544 -0.177219,1.5949634 -0.531655,2.2250723 -0.354436,0.6202636 -0.8664,1.09776802 -1.535891,1.43743614 -0.66949,0.32982267 -1.457127,0.49227264 -2.362908,0.49227264 h -2.5992 V -8.3467834 Z m 0,7.44316222 c 1.073154,0 1.895249,-0.28059542 2.461363,-0.84670892 0.575959,-0.575959 0.8664,-1.3783634 0.8664,-2.4022905 0,-1.0337725 -0.290441,-1.8410996 -0.8664,-2.4219813 -0.566114,-0.5907272 -1.388209,-0.8860908 -2.461363,-0.8860908 h -1.5162 v 6.55707152 z m 6.965658,-6.55707152 v 2.7764177 h 3.05209 v 0.9057816 h -3.05209 v 2.87487222 h 3.406526 V 0.00216048 H 87.960183 V -8.3664743 h 4.489526 v 0.9057816 z m 12.454497,3.1505449 c 0.31505,0.05415 0.59565,0.1772181 0.84671,0.3741272 0.24614,0.196909 0.44304,0.4479681 0.59073,0.7482544 0.14276,0.305209 0.2166,0.6202635 0.2166,0.9451635 0,0.4233544 -0.1083,0.8024044 -0.31506,1.1420725 -0.21168,0.34459081 -0.52673,0.61041804 -0.94516,0.80732709 -0.40859,0.19690906 -0.89594,0.29536359 -1.45713,0.29536359 H 97.323208 V -8.3467834 h 2.993022 c 0.56119,0 1.04361,0.093532 1.43743,0.2756726 0.40367,0.1870636 0.70887,0.4430454 0.90578,0.7679453 0.20676,0.3150545 0.31506,0.6694908 0.31506,1.0633089 0,0.5021181 -0.13784,0.9156271 -0.41351,1.2405271 -0.26583,0.3150545 -0.62026,0.5464226 -1.06331,0.6891817 z m -3.091472,-0.4331999 h 1.831252 c 0.51197,0 0.90578,-0.1181455 1.18146,-0.3544363 0.28551,-0.2461364 0.4332,-0.5808818 0.4332,-1.0042362 0,-0.4184318 -0.14769,-0.7482544 -0.4332,-0.9845453 -0.27568,-0.2461363 -0.67934,-0.3741272 -1.20115,-0.3741272 h -1.811562 z m 1.929712,3.83972652 c 0.55134,0 0.9747,-0.12306812 1.27991,-0.37412722 0.30028,-0.2609045 0.45289,-0.6153408 0.45289,-1.0633089 0,-0.4725817 -0.16738,-0.8368635 -0.49228,-1.1026907 -0.31505,-0.2609045 -0.73841,-0.3938181 -1.26021,-0.3938181 h -1.910022 v 2.93394492 z m 8.1225,0.98454528 c -0.7778,0 -1.48667,-0.17721815 -2.12662,-0.53165445 -0.63011,-0.36428175 -1.13715,-0.87132255 -1.5162,-1.51619975 -0.36921,-0.6547226 -0.55135,-1.3980543 -0.55135,-2.2250723 0,-0.8122498 0.18214,-1.5408133 0.55135,-2.1856905 0.37905,-0.6547226 0.88609,-1.1617634 1.5162,-1.5161997 0.63995,-0.3642818 1.34882,-0.5513454 2.12662,-0.5513454 0.78763,0 1.4965,0.1870636 2.12661,0.5513454 0.63996,0.3544363 1.147,0.8614771 1.5162,1.5161997 0.36428,0.6448772 0.55135,1.3734407 0.55135,2.1856905 0,0.827018 -0.18707,1.5703497 -0.55135,2.2250723 -0.3692,0.6448772 -0.87624,1.151918 -1.5162,1.51619975 -0.63011,0.3544363 -1.33898,0.53165445 -2.12661,0.53165445 z m 0,-0.94516347 c 0.59072,0 1.11253,-0.12799088 1.57527,-0.39381813 0.47258,-0.2756727 0.83686,-0.6596453 1.10269,-1.1617634 0.27567,-0.5119635 0.41351,-1.1026907 0.41351,-1.7721815 0,-0.6694908 -0.13784,-1.2503725 -0.41351,-1.7524906 -0.26583,-0.4971953 -0.63011,-0.8762453 -1.10269,-1.1420725 -0.46274,-0.2756727 -0.98455,-0.413509 -1.57527,-0.413509 -0.59073,0 -1.11746,0.1378363 -1.57528,0.413509 -0.46273,0.2658272 -0.82702,0.6448772 -1.10269,1.1420725 -0.26582,0.5021181 -0.39382,1.0829998 -0.39382,1.7524906 0,0.6694908 0.128,1.260218 0.39382,1.7721815 0.27567,0.5021181 0.63996,0.8860907 1.10269,1.1617634 0.47258,0.26582725 0.99439,0.39381813 1.57528,0.39381813 z m 6.73429,-0.0196909 h 2.93394 v 0.88609075 h -4.01694 V -8.3467834 h 1.083 z m 6.73921,0.96485437 c -0.55135,0 -1.04362,-0.09845453 -1.47682,-0.29536358 -0.4332,-0.19690906 -0.77779,-0.46273628 -1.02393,-0.80732712 -0.25106,-0.3544363 -0.37412,-0.7531771 -0.37412,-1.2011452 h 1.16176 c 0.0394,0.3938181 0.19691,0.7236407 0.47258,0.9845452 0.28552,0.26582725 0.69903,0.39381814 1.24053,0.39381814 0.52181,0 0.93532,-0.12306816 1.24052,-0.37412724 0.30029,-0.2609045 0.4529,-0.5956499 0.4529,-1.0042361 0,-0.3249 -0.0935,-0.5907272 -0.27568,-0.7876363 -0.17229,-0.196909 -0.38889,-0.3445908 -0.6498,-0.4528908 -0.26582,-0.1033772 -0.62026,-0.2165999 -1.06331,-0.3347454 -0.55134,-0.142759 -0.99931,-0.2855181 -1.33898,-0.4331999 -0.32982,-0.1427591 -0.61042,-0.3642818 -0.84671,-0.6694908 -0.23629,-0.3150545 -0.35443,-0.7285635 -0.35443,-1.240527 0,-0.4578136 0.1083,-0.8663999 0.33474,-1.2208362 0.23629,-0.3544363 0.56119,-0.6202635 0.98455,-0.8073271 0.41843,-0.196909 0.90578,-0.2953636 1.45712,-0.2953636 0.78764,0 1.4276,0.1969091 1.92971,0.5907272 0.4972,0.3938181 0.77779,0.9156271 0.84671,1.5555815 h -1.20114 c -0.0394,-0.3150545 -0.21168,-0.5907271 -0.51197,-0.827018 -0.30521,-0.2461363 -0.69902,-0.3741272 -1.18145,-0.3741272 -0.44797,0 -0.81717,0.1181454 -1.10269,0.3544363 -0.29044,0.2264454 -0.4332,0.5513453 -0.4332,0.9845453 0,0.305209 0.0837,0.5513453 0.25598,0.7482544 0.16737,0.1870636 0.37905,0.3298226 0.63011,0.4331999 0.24614,0.093532 0.60057,0.2067545 1.06331,0.3347454 0.55134,0.1575272 0.98947,0.3101317 1.31929,0.4528908 0.33967,0.1476818 0.63011,0.3741272 0.8664,0.6891817 0.24614,0.305209 0.37413,0.718718 0.37413,1.240527 0,0.4085863 -0.11323,0.7974817 -0.33475,1.1617635 -0.21168,0.35443626 -0.53165,0.64487712 -0.96485,0.8663998 -0.42336,0.22644542 -0.92055,0.3347454 -1.49651,0.3347454 z m 8.18649,0 c -0.77779,0 -1.48666,-0.17721815 -2.12662,-0.53165445 -0.63011,-0.36428175 -1.13715,-0.87132255 -1.5162,-1.51619975 -0.3692,-0.6547226 -0.55134,-1.3980543 -0.55134,-2.2250723 0,-0.8122498 0.18214,-1.5408133 0.55134,-2.1856905 0.37905,-0.6547226 0.88609,-1.1617634 1.5162,-1.5161997 0.63996,-0.3642818 1.34883,-0.5513454 2.12662,-0.5513454 0.78764,0 1.49651,0.1870636 2.12662,0.5513454 0.63995,0.3544363 1.14699,0.8614771 1.5162,1.5161997 0.36428,0.6448772 0.55134,1.3734407 0.55134,2.1856905 0,0.827018 -0.18706,1.5703497 -0.55134,2.2250723 -0.36921,0.6448772 -0.87625,1.151918 -1.5162,1.51619975 -0.63011,0.3544363 -1.33898,0.53165445 -2.12662,0.53165445 z m 0,-0.94516347 c 0.59073,0 1.11254,-0.12799088 1.57527,-0.39381813 0.47259,-0.2756727 0.83687,-0.6596453 1.10269,-1.1617634 0.27568,-0.5119635 0.41351,-1.1026907 0.41351,-1.7721815 0,-0.6694908 -0.13783,-1.2503725 -0.41351,-1.7524906 -0.26582,-0.4971953 -0.6301,-0.8762453 -1.10269,-1.1420725 -0.46273,-0.2756727 -0.98454,-0.413509 -1.57527,-0.413509 -0.59073,0 -1.11746,0.1378363 -1.57527,0.413509 -0.46274,0.2658272 -0.82702,0.6448772 -1.10269,1.1420725 -0.26583,0.5021181 -0.39382,1.0829998 -0.39382,1.7524906 0,0.6694908 0.12799,1.260218 0.39382,1.7721815 0.27567,0.5021181 0.63995,0.8860907 1.10269,1.1617634 0.47258,0.26582725 0.99439,0.39381813 1.57527,0.39381813 z m 0,0"
         style="fill:#737373;fill-opacity:1;fill-rule:nonzero;stroke:none"
         aria-label="SEU AUDITOR DE BOLSO"
         transform="matrix(0.79351353,0,0,0.79351353,1826.0696,288.92016)"
         clip-path="url(#clipPath55)"
         id="path56" />
    </g>
    <g
       id="g57">
      <path
         id="path58"
         d="M 19.62832,142.59747 H 123.99296 V 248.48251 H 19.62832 Z"
         style="fill:#000000;fill-opacity:0;fill-rule:nonzero;stroke:none"
         transform="matrix(1.3333333,0,0,-1.3333333,1560,510.71997)" />
    </g>
  </g>
</svg>
