<?xml version="1.0" encoding="UTF-8" standalone="no"?>
<!-- Created with Inkscape (http://www.inkscape.org/) -->

<svg
   version="1.1"
   id="svg1"
   width="282.34744"
   height="345.28101"
   viewBox="0 0 282.34744 345.28101"
   xmlns="http://www.w3.org/2000/svg"
   xmlns:svg="http://www.w3.org/2000/svg">
  <defs
     id="defs1">
    <clipPath
       clipPathUnits="userSpaceOnUse"
       id="clipPath78">
      <path
         d="M 0,0 H 781 V 225 H 0 Z"
         transform="matrix(0.24595423,0,0,0.24595423,-0.03951038,-41.202535)"
         id="path78" />
    </clipPath>
    <clipPath
       clipPathUnits="userSpaceOnUse"
       id="clipPath80">
      <path
         d="M 0,0 H 1562.5 V 1562.5 H 0 Z"
         transform="matrix(0.31999999,0,0,0.31999999,2600,0)"
         clip-rule="evenodd"
         id="path80" />
    </clipPath>
    <clipPath
       clipPathUnits="userSpaceOnUse"
       id="clipPath81">
      <path
         d="M 0,0 H 284 V 37 H 0 Z"
         transform="matrix(0.48086284,0,0,0.48086284,-0.97255794,-12.325893)"
         id="path81" />
    </clipPath>
    <clipPath
       clipPathUnits="userSpaceOnUse"
       id="clipPath83">
      <path
         d="M 0,0 H 1562.5 V 1562.5 H 0 Z"
         transform="matrix(0.31999999,0,0,0.31999999,2600,0)"
         clip-rule="evenodd"
         id="path83" />
    </clipPath>
    <clipPath
       clipPathUnits="userSpaceOnUse"
       id="clipPath93">
      <path
         d="M 147.97743,261.67014 H 1850.335 V 1964.0276 H 147.97743 Z"
         clip-rule="evenodd"
         id="path93"
         style="stroke-width:1.08951" />
    </clipPath>
  </defs>
  <g
     id="g71"
     transform="translate(-2708.8263,-73.863514)">
    <path
       id="path75"
       d="M 1469.1602,1443.5508 1195.6406,893.41016 c -80.5312,72.03125 -151.4023,198.41014 -147.4492,301.96094 l 82.7578,163.1992 c 2.9727,5.8594 8.0391,10.3789 14.1992,12.668 l 291.5,108.4414 c 22.2032,8.2617 43.0625,-14.918 32.5118,-36.1289 z M 978.31641,1142.9102 c -0.70313,1.0312 -1.35157,2.1289 -1.92969,3.3086 l -103.83984,210.4531 c -2.94922,5.9765 -8.07422,10.6094 -14.32422,12.9375 l -296.8711,110.4297 c -22.07422,8.2226 -42.89453,-14.668 -32.64062,-35.8672 L 969.38672,533 c 9.45703,-19.55078 37.26168,-19.71094 46.93358,-0.26172 l 169.9688,341.88281 c -93.1993,66.61719 -166.1797,159.71871 -207.97269,268.28911"
       style="fill:#000000;fill-opacity:1;fill-rule:nonzero;stroke:none"
       transform="matrix(0.29371033,0,0,0.29371033,2556.5375,-76.855222)"
       clip-path="url(#clipPath93)" />
    <g
       id="g79"
       clip-path="url(#clipPath80)">
      <path
         d="M 19.695229,-4.8990564 H 9.3550626 L 7.6977536,8.1347833e-4 H 0.63617642 L 10.652087,-27.705069 h 7.818175 L 28.498182,8.1347833e-4 h -7.145644 z m -1.729366,-5.2001066 -3.434712,-10.148015 -3.398685,10.148015 z M 38.16882,-27.705069 v 16.57309 c 0,1.6573088 0.408322,2.9363189 1.224967,3.8310256 0.816645,0.897709 2.011589,1.3450623 3.590836,1.3450623 1.576245,0 2.786201,-0.4473533 3.626865,-1.3450623 0.846668,-0.8947067 1.273005,-2.1737168 1.273005,-3.8310256 v -16.57309 h 6.749331 v 16.537061 c 0,2.4739543 -0.528418,4.5696095 -1.585253,6.2809611 -1.050829,1.7053468 -2.461944,2.9963665 -4.239348,3.8670542 -1.777404,0.86468287 -3.758969,1.29702433 -5.944695,1.29702433 -2.185726,0 -4.14027,-0.42633671 -5.860629,-1.28501493 -1.723361,-0.8556758 -3.083435,-2.143693 -4.083224,-3.8670541 -1.002792,-1.7203588 -1.501186,-3.8190163 -1.501186,-6.2929706 v -16.537061 z m 31.569933,0 c 2.921308,0 5.476326,0.582461 7.662052,1.741376 2.185726,1.15291 3.873059,2.774191 5.068002,4.863841 1.200949,2.089651 1.801423,4.503557 1.801423,7.24172 0,2.714143 -0.600474,5.1250475 -1.801423,7.2297097 -1.194943,2.1076647 -2.891283,3.7409546 -5.092021,4.8998699 -2.194734,1.1529106 -4.740744,1.72936587833 -7.638033,1.72936587833 H 59.362558 V -27.705069 Z m -0.432341,21.8692728 c 2.552015,0 4.539585,-0.6965502 5.956704,-2.0896504 1.423124,-1.3991051 2.137689,-3.3776674 2.137689,-5.9326854 0,-2.552016 -0.714565,-4.539586 -2.137689,-5.956705 -1.417119,-1.423124 -3.404689,-2.137688 -5.956704,-2.137688 H 66.111889 V -5.8357962 Z M 107.99197,-27.705069 v 5.404269 h -7.34981 V 8.1347833e-4 H 93.89283 V -22.3008 h -7.337795 v -5.404269 z M 125.51981,8.1347833e-4 119.75526,-10.459448 h -1.62128 V 8.1347833e-4 h -6.74933 V -27.705069 h 11.32494 c 2.18573,0 4.0472,0.381302 5.58441,1.140902 1.54322,0.762602 2.69613,1.807427 3.45873,3.134475 0.7596,1.330051 1.1409,2.81022 1.1409,4.44351 0,1.843456 -0.52241,3.488755 -1.56123,4.935898 -1.03282,1.450145 -2.56703,2.473954 -4.59963,3.074428 L 133.13382,8.1347833e-4 Z M 118.13398,-15.239223 h 4.1793 c 1.23998,0 2.16771,-0.300237 2.7862,-0.900711 0.61548,-0.606479 0.92473,-1.465158 0.92473,-2.57003 0,-1.056835 -0.30925,-1.885489 -0.92473,-2.485964 -0.61849,-0.606479 -1.54622,-0.91272 -2.7862,-0.91272 h -4.1793 z m 36.22961,10.3401666 h -10.34017 l -1.65731,4.89986987833 h -7.06157 L 145.32045,-27.705069 h 7.81817 L 163.16654,8.1347833e-4 h -7.14564 z m -1.72937,-5.2001066 -3.43471,-10.148015 -3.39868,10.148015 z M 183.17434,8.1347833e-4 177.52989,-8.4898924 172.55796,8.1347833e-4 h -7.66205 L 173.78293,-14.086312 164.70376,-27.705069 h 7.8542 l 5.56039,8.358602 4.89987,-8.358602 h 7.66205 l -8.80295,13.967032 9.15123,13.73885047833 z m 0,0"
         style="fill:#000000;fill-opacity:1;fill-rule:nonzero;stroke:none"
         aria-label="AUDTRAX"
         transform="matrix(1.301055,0,0,1.301055,2724.2114,404.00675)"
         clip-path="url(#clipPath78)"
         id="path79" />
    </g>
    <g
       id="g82"
       clip-path="url(#clipPath83)">
      <path
         d="m 3.5715309,0.09321258 c -0.5517713,0 -1.0448436,-0.0939185231 -1.4792168,-0.28175558 C 1.652071,-0.38811987 1.3057464,-0.66400554 1.0592103,-1.0103301 0.82441399,-1.3683945 0.69527601,-1.7734181 0.6835362,-2.231271 h 1.1739816 c 0.029349,0.3932839 0.187837,0.7219987 0.4695926,0.9861446 0.2934954,0.27001574 0.7102589,0.39915372 1.2444205,0.39915372 0.5165519,0 0.9215755,-0.12326807 1.2209408,-0.37567412 0.3111052,-0.2641458 0.4695927,-0.5987306 0.4695927,-1.0096242 0,-0.3111051 -0.093919,-0.569381 -0.2817556,-0.7748278 C 4.8042116,-3.2056757 4.587025,-3.3582933 4.3228791,-3.4522118 4.0704731,-3.5578701 3.7182786,-3.6752683 3.2662957,-3.8044063 2.7145243,-3.9452841 2.2684113,-4.0861619 1.9279567,-4.2270396 1.5992418,-4.3796573 1.3174863,-4.6085837 1.0826899,-4.907949 0.84789362,-5.2190541 0.73049546,-5.6358176 0.73049546,-6.1523694 c 0,-0.451983 0.11739816,-0.8511367 0.35219444,-1.1974613 0.2347964,-0.3580643 0.5517714,-0.63395 0.9626649,-0.8217871 0.4226334,-0.1995768 0.9039659,-0.3052352 1.4557372,-0.3052352 0.7806978,0 1.4205177,0.1995769 1.9253298,0.5869908 0.4989422,0.3932838 0.7806978,0.9157056 0.8452667,1.5731353 H 5.0742273 C 5.0390079,-6.6454417 4.8746505,-6.9271973 4.5811551,-7.1619936 4.2817898,-7.4085297 3.8885059,-7.5376677 3.4071735,-7.5376677 c -0.4695927,0 -0.8452668,0.1173981 -1.1270223,0.3521945 -0.2817556,0.2347963 -0.4226334,0.5635111 -0.4226334,0.9861445 0,0.316975 0.082179,0.5635111 0.2582759,0.7513482 0.1702274,0.1878371 0.381544,0.3404547 0.6339501,0.446113 0.2465361,0.093919 0.5987306,0.2054468 1.0565834,0.3287148 0.5459015,0.1584876 0.9861445,0.3169751 1.3148594,0.4695927 0.3404546,0.1408778 0.63395,0.3698042 0.8687464,0.6809093 0.2465361,0.2993653 0.3756741,0.7161288 0.3756741,1.2444205 0,0.4108935 -0.1115283,0.7924376 -0.3287149,1.1505019 C 5.8138357,-0.76379397 5.4968607,-0.47029858 5.0742273,-0.23550226 4.651594,-0.01244576 4.1467819,0.09321258 3.5715309,0.09321258 Z M 9.0657647,-7.4672288 v 2.7940761 h 3.0523523 v 0.8922261 H 9.0657647 v 2.88799465 H 12.470311 V -7.0594308e-4 H 7.962222 V -8.3829345 h 4.508089 v 0.9157057 z m 6.1281843,-0.892226 v 5.2829171 c 0,0.7513482 0.176097,1.3089895 0.540031,1.6670539 0.358065,0.3639342 0.868746,0.54003148 1.526176,0.54003148 0.63982,0 1.138762,-0.17609728 1.502697,-0.54003148 0.358064,-0.3580644 0.540031,-0.9157057 0.540031,-1.6670539 v -5.2829171 h 1.103543 v 5.2829171 c 0,0.6926491 -0.140878,1.2796399 -0.422634,1.7609724 -0.281755,0.46959262 -0.669169,0.82178709 -1.150501,1.05658341 -0.469593,0.23479632 -1.003755,0.35219447 -1.596615,0.35219447 -0.598731,0 -1.127023,-0.11739815 -1.596615,-0.35219447 -0.469593,-0.23479632 -0.845267,-0.58699079 -1.127023,-1.05658341 -0.281755,-0.4813325 -0.422633,-1.0683233 -0.422633,-1.7609724 v -5.2829171 z m 15.179581,6.503858 h -3.639342 l -0.68091,1.85489085692 H 24.902776 L 27.931649,-8.3124956 h 1.24442 l 3.028873,8.31178965692 H 31.03096 Z m -0.305235,-0.8922261 -1.526176,-4.2263337 -1.502696,4.2263337 z m 4.519829,-5.6116319 v 5.2829171 c 0,0.7513482 0.176098,1.3089895 0.540032,1.6670539 0.358064,0.3639342 0.868746,0.54003148 1.526176,0.54003148 0.63982,0 1.138762,-0.17609728 1.502696,-0.54003148 0.358065,-0.3580644 0.540032,-0.9157057 0.540032,-1.6670539 v -5.2829171 h 1.103543 v 5.2829171 c 0,0.6926491 -0.140878,1.2796399 -0.422634,1.7609724 -0.281755,0.46959262 -0.669169,0.82178709 -1.150502,1.05658341 -0.469592,0.23479632 -1.003754,0.35219447 -1.596615,0.35219447 -0.59873,0 -1.127022,-0.11739815 -1.596615,-0.35219447 -0.469592,-0.23479632 -0.845266,-0.58699079 -1.127022,-1.05658341 -0.281756,-0.4813325 -0.422633,-1.0683233 -0.422633,-1.7609724 v -5.2829171 z m 9.626649,0 c 0.903966,0 1.696404,0.1760972 2.371443,0.5165519 0.66917,0.3287148 1.179852,0.8159172 1.526176,1.4557371 0.358065,0.6280802 0.540032,1.3735585 0.540032,2.230565 0,0.8452668 -0.181967,1.5907451 -0.540032,2.2305651 -0.346324,0.6280801 -0.857006,1.10354265 -1.526176,1.43225749 -0.675039,0.32871485 -1.467477,0.49307226692 -2.371443,0.49307226692 H 41.608534 V -8.3594548 Z m 0,7.46652285 c 1.080063,0 1.901851,-0.28175555 2.465362,-0.84526675 0.575251,-0.575251 0.868746,-1.3852983 0.868746,-2.4184021 0,-1.0448436 -0.293495,-1.8607608 -0.868746,-2.4418817 -0.563511,-0.5752509 -1.385299,-0.8687463 -2.465362,-0.8687463 h -1.502696 v 6.57429685 z M 51.194094,-8.3594548 V -7.0594308e-4 H 50.090551 V -8.3594548 Z m 7.01454,0 v 0.892226 H 55.90763 V -7.0594308e-4 H 54.827567 V -7.4672288 h -2.301004 v -0.892226 z m 5.130299,8.45266738 c -0.786567,0 -1.496826,-0.17609723 -2.136646,-0.54003153 -0.64569,-0.3756741 -1.150502,-0.88048615 -1.526176,-1.52617605 -0.363934,-0.6574297 -0.540032,-1.3911682 -0.540032,-2.2070854 0,-0.8100473 0.176098,-1.5496557 0.540032,-2.2070854 0.375674,-0.6574297 0.880486,-1.1622417 1.526176,-1.526176 0.63982,-0.3580644 1.350079,-0.5400316 2.136646,-0.5400316 0.780698,0 1.490957,0.1819672 2.136647,0.5400316 0.63982,0.3639343 1.138762,0.8687463 1.502696,1.526176 0.375674,0.6456899 0.563511,1.3794284 0.563511,2.2070854 0,0.8159172 -0.187837,1.5496557 -0.563511,2.2070854 -0.363934,0.6456899 -0.862876,1.15050195 -1.502696,1.52617605 -0.64569,0.3639343 -1.355949,0.54003153 -2.136647,0.54003153 z m 0,-0.9626649 c 0.575251,0 1.103543,-0.12913797 1.573136,-0.39915378 0.469592,-0.2817555 0.833527,-0.6691695 1.103542,-1.1739815 0.264146,-0.4989422 0.399154,-1.0800631 0.399154,-1.7374928 0,-0.6691695 -0.135008,-1.2561603 -0.399154,-1.7609724 -0.270015,-0.4989421 -0.63395,-0.8804862 -1.103542,-1.1505019 -0.457853,-0.2817556 -0.980275,-0.4226334 -1.573136,-0.4226334 -0.59873,0 -1.127022,0.1408778 -1.596615,0.4226334 -0.457852,0.2700157 -0.821787,0.6515598 -1.103542,1.1505019 -0.270016,0.5048121 -0.399154,1.0918029 -0.399154,1.7609724 0,0.6574297 0.129138,1.2385506 0.399154,1.7374928 0.281755,0.504812 0.657429,0.892226 1.127022,1.1739815 0.469593,0.27001581 0.992015,0.39915378 1.573135,0.39915378 z M 73.382346,-7.0594308e-4 71.386577,-3.4287322 H 70.071718 V -7.0594308e-4 H 68.968175 V -8.3594548 h 2.700158 c 0.63982,0 1.173981,0.1115282 1.596615,0.3287148 0.434373,0.2054468 0.763088,0.4930723 0.986144,0.8687464 0.217187,0.3639343 0.328715,0.7865677 0.328715,1.2679001 0,0.5635112 -0.164357,1.0741932 -0.493072,1.5261761 -0.328715,0.4402431 -0.833527,0.7278685 -1.502697,0.8687463 l 2.113167,3.49846515692 z M 70.071718,-4.2974785 h 1.596615 c 0.59286,0 1.038973,-0.1408778 1.338339,-0.4226334 0.293495,-0.2934954 0.446113,-0.6867792 0.446113,-1.1739816 0,-0.4989422 -0.152618,-0.8804862 -0.446113,-1.150502 -0.281756,-0.2817555 -0.727869,-0.4226333 -1.338339,-0.4226333 h -1.596615 z m 12.003961,-4.0619763 c 0.903966,0 1.696404,0.1760972 2.371443,0.5165519 0.66917,0.3287148 1.179852,0.8159172 1.526176,1.4557371 0.358065,0.6280802 0.540032,1.3735585 0.540032,2.230565 0,0.8452668 -0.181967,1.5907451 -0.540032,2.2305651 -0.346324,0.6280801 -0.857006,1.10354265 -1.526176,1.43225749 -0.675039,0.32871485 -1.467477,0.49307226692 -2.371443,0.49307226692 H 79.46944 V -8.3594548 Z m 0,7.46652285 c 1.080064,0 1.901851,-0.28175555 2.465362,-0.84526675 0.575251,-0.575251 0.868746,-1.3852983 0.868746,-2.4184021 0,-1.0448436 -0.293495,-1.8607608 -0.868746,-2.4418817 -0.563511,-0.5752509 -1.385298,-0.8687463 -2.465362,-0.8687463 h -1.502696 v 6.57429685 z M 89.055,-7.4672288 v 2.7940761 h 3.052352 v 0.8922261 H 89.055 v 2.88799465 h 3.404547 v 0.89222600692 h -4.50809 V -8.3829345 h 4.50809 v 0.9157057 z m 12.46181,3.1697503 c 0.2935,0.046959 0.56939,0.1760972 0.82179,0.3756741 0.24654,0.187837 0.44611,0.4343731 0.58699,0.7278685 0.15262,0.2993653 0.2348,0.6104705 0.2348,0.9391853 0,0.4402431 -0.11153,0.8335269 -0.32872,1.1739816 -0.20544,0.32871484 -0.51655,0.59873061 -0.93918,0.79830748 -0.41089,0.18783705 -0.89223,0.28175557692 -1.45574,0.28175557692 H 97.31396 V -8.3594548 h 3.00539 c 0.56351,0 1.03898,0.093918 1.43226,0.2817556 0.40502,0.187837 0.71026,0.446113 0.91571,0.7748278 0.19957,0.316975 0.30523,0.6691695 0.30523,1.0565834 0,0.5048121 -0.13501,0.9157057 -0.39915,1.2444205 -0.27002,0.316975 -0.62221,0.5517713 -1.05659,0.704389 z m -3.099307,-0.446113 h 1.831407 c 0.51656,0 0.91571,-0.1173982 1.19747,-0.3521945 0.28175,-0.2465362 0.42263,-0.5869908 0.42263,-1.0096242 0,-0.4226334 -0.14088,-0.7513482 -0.42263,-0.9861445 -0.28176,-0.2465361 -0.69265,-0.3756741 -1.22095,-0.3756741 h -1.807927 z m 1.925327,3.85065955 c 0.5459,0 0.96854,-0.12326805 1.2679,-0.37567415 0.31111,-0.2641458 0.4696,-0.6222102 0.4696,-1.080063 0,-0.4695926 -0.16436,-0.8335269 -0.49308,-1.1035427 -0.31697,-0.2641459 -0.7396,-0.3991537 -1.2679,-0.3991537 h -1.901847 v 2.95843355 z m 8.12983,0.98614453 c -0.78657,0 -1.49683,-0.17609723 -2.13665,-0.54003153 -0.64569,-0.3756741 -1.1505,-0.88048615 -1.52618,-1.52617605 -0.36393,-0.6574297 -0.54003,-1.3911682 -0.54003,-2.2070854 0,-0.8100473 0.1761,-1.5496557 0.54003,-2.2070854 0.37568,-0.6574297 0.88049,-1.1622417 1.52618,-1.526176 0.63982,-0.3580644 1.35008,-0.5400316 2.13665,-0.5400316 0.78069,0 1.49095,0.1819672 2.13664,0.5400316 0.63982,0.3639343 1.13876,0.8687463 1.5027,1.526176 0.37567,0.6456899 0.56351,1.3794284 0.56351,2.2070854 0,0.8159172 -0.18784,1.5496557 -0.56351,2.2070854 -0.36394,0.6456899 -0.86288,1.15050195 -1.5027,1.52617605 -0.64569,0.3639343 -1.35595,0.54003153 -2.13664,0.54003153 z m 0,-0.9626649 c 0.57525,0 1.10354,-0.12913797 1.57313,-0.39915378 0.46959,-0.2817555 0.83353,-0.6691695 1.10354,-1.1739815 0.26415,-0.4989422 0.39916,-1.0800631 0.39916,-1.7374928 0,-0.6691695 -0.13501,-1.2561603 -0.39916,-1.7609724 -0.27001,-0.4989421 -0.63395,-0.8804862 -1.10354,-1.1505019 -0.45785,-0.2817556 -0.98027,-0.4226334 -1.57313,-0.4226334 -0.59874,0 -1.12703,0.1408778 -1.59662,0.4226334 -0.45785,0.2700157 -0.82179,0.6515598 -1.10354,1.1505019 -0.27002,0.5048121 -0.39916,1.0918029 -0.39916,1.7609724 0,0.6574297 0.12914,1.2385506 0.39916,1.7374928 0.28175,0.504812 0.65743,0.892226 1.12702,1.1739815 0.46959,0.27001581 0.99201,0.39915378 1.57314,0.39915378 z m 6.73278,-0.0234796 h 2.93495 V -7.0594308e-4 H 114.1019 V -8.3594548 h 1.10354 z m 6.73278,0.98614453 c -0.55177,0 -1.04484,-0.0939185231 -1.47921,-0.28175558 -0.44025,-0.19957687 -0.78657,-0.47546254 -1.03311,-0.82178713 -0.23479,-0.3580644 -0.36393,-0.763088 -0.37567,-1.2209409 h 1.17398 c 0.0293,0.3932839 0.18784,0.7219987 0.46959,0.9861446 0.2935,0.27001577 0.71026,0.39915375 1.24442,0.39915375 0.51656,0 0.92158,-0.12326807 1.22095,-0.37567415 0.3111,-0.2641458 0.46959,-0.5987306 0.46959,-1.0096242 0,-0.3111051 -0.0939,-0.569381 -0.28176,-0.7748278 -0.1761,-0.1995769 -0.39328,-0.3521945 -0.65743,-0.446113 -0.2524,-0.1056583 -0.6046,-0.2230565 -1.05658,-0.3521945 -0.55177,-0.1408778 -0.99789,-0.2817556 -1.33834,-0.4226333 -0.32871,-0.1526177 -0.61047,-0.3815441 -0.84527,-0.6809094 -0.23479,-0.3111051 -0.35219,-0.7278686 -0.35219,-1.2444204 0,-0.451983 0.1174,-0.8511367 0.35219,-1.1974613 0.2348,-0.3580643 0.55177,-0.63395 0.96267,-0.8217871 0.42263,-0.1995768 0.90396,-0.3052352 1.45574,-0.3052352 0.78069,0 1.42051,0.1995769 1.92533,0.5869908 0.49894,0.3932838 0.78069,0.9157056 0.84526,1.5731353 h -1.19746 c -0.0352,-0.3287148 -0.19958,-0.6104704 -0.49307,-0.8452667 -0.29937,-0.2465361 -0.69265,-0.3756741 -1.17398,-0.3756741 -0.4696,0 -0.84527,0.1173981 -1.12703,0.3521945 -0.28175,0.2347963 -0.42263,0.5635111 -0.42263,0.9861445 0,0.316975 0.0822,0.5635111 0.25828,0.7513482 0.17022,0.1878371 0.38154,0.3404547 0.63395,0.446113 0.24653,0.093919 0.59873,0.2054468 1.05658,0.3287148 0.5459,0.1584876 0.98615,0.3169751 1.31486,0.4695927 0.34045,0.1408778 0.63395,0.3698042 0.86875,0.6809093 0.24653,0.2993653 0.37567,0.7161288 0.37567,1.2444205 0,0.4108935 -0.11153,0.7924376 -0.32871,1.1505019 -0.22306,0.36393436 -0.54004,0.65742975 -0.96267,0.89222607 -0.42263,0.2230565 -0.92744,0.32871484 -1.5027,0.32871484 z m 8.1944,0 c -0.78657,0 -1.49683,-0.17609723 -2.13665,-0.54003153 -0.64569,-0.3756741 -1.1505,-0.88048618 -1.52618,-1.52617608 -0.36393,-0.6574297 -0.54003,-1.3911682 -0.54003,-2.2070854 0,-0.8100473 0.1761,-1.5496557 0.54003,-2.2070854 0.37568,-0.6574297 0.88049,-1.1622417 1.52618,-1.526176 0.63982,-0.3580644 1.35008,-0.5400316 2.13665,-0.5400316 0.78069,0 1.49095,0.1819672 2.13664,0.5400316 0.63982,0.3639343 1.13876,0.8687463 1.5027,1.526176 0.37567,0.6456899 0.56351,1.3794284 0.56351,2.2070854 0,0.8159172 -0.18784,1.5496557 -0.56351,2.2070854 -0.36394,0.6456899 -0.86288,1.15050198 -1.5027,1.52617608 -0.64569,0.3639343 -1.35595,0.54003153 -2.13664,0.54003153 z m 0,-0.9626649 c 0.57525,0 1.10354,-0.12913797 1.57313,-0.39915381 0.46959,-0.2817555 0.83353,-0.6691695 1.10354,-1.1739815 0.26415,-0.4989422 0.39916,-1.0800631 0.39916,-1.7374928 0,-0.6691695 -0.13501,-1.2561603 -0.39916,-1.7609724 -0.27001,-0.4989421 -0.63395,-0.8804862 -1.10354,-1.1505019 -0.45785,-0.2817556 -0.98027,-0.4226334 -1.57313,-0.4226334 -0.59873,0 -1.12703,0.1408778 -1.59662,0.4226334 -0.45785,0.2700157 -0.82179,0.6515598 -1.10354,1.1505019 -0.27002,0.5048121 -0.39916,1.0918029 -0.39916,1.7609724 0,0.6574297 0.12914,1.2385506 0.39916,1.7374928 0.28175,0.504812 0.65743,0.892226 1.12702,1.1739815 0.46959,0.27001584 0.99201,0.39915381 1.57314,0.39915381 z m 0,0"
         style="fill:#737373;fill-opacity:1;fill-rule:nonzero;stroke:none"
         aria-label="SEU AUDITOR DE BOLSO"
         transform="matrix(0.6654704,0,0,0.6654704,2805.1272,419.0825)"
         clip-path="url(#clipPath81)"
         id="path82" />
    </g>
    <g
       id="g83">
      <path
         id="path84"
         d="M 81.619705,112.7968 H 293.38029 V 327.64235 H 81.619705 Z"
         style="fill:#000000;fill-opacity:0;fill-rule:nonzero;stroke:none"
         transform="matrix(1.3333333,0,0,-1.3333333,2600,510.71997)" />
    </g>
  </g>
</svg>
