<?xml version="1.0" encoding="UTF-8" standalone="no"?>
<!-- Created with Inkscape (http://www.inkscape.org/) -->

<svg
   version="1.1"
   id="svg1"
   width="430.16473"
   height="100.9969"
   viewBox="0 0 430.16473 100.9969"
   sodipodi:docname="Audtrax Impressao.pdf"
   inkscape:export-batch-path="C:\Users\marce\Downloads"
   inkscape:export-batch-name="Audtrax Impressao"
   xmlns:inkscape="http://www.inkscape.org/namespaces/inkscape"
   xmlns:sodipodi="http://sodipodi.sourceforge.net/DTD/sodipodi-0.dtd"
   xmlns="http://www.w3.org/2000/svg"
   xmlns:svg="http://www.w3.org/2000/svg">
  <defs
     id="defs1">
    <clipPath
       clipPathUnits="userSpaceOnUse"
       id="clipPath20">
      <path
         d="M 169.11087,-1326.4775 H 4998.2476 V 3502.6593 H 169.11087 Z"
         clip-rule="evenodd"
         id="path21"
         style="stroke-width:3.09065" />
    </clipPath>
  </defs>
  <sodipodi:namedview
     id="namedview1"
     pagecolor="#ffffff"
     bordercolor="#000000"
     borderopacity="0.25"
     inkscape:showpageshadow="2"
     inkscape:pageopacity="0.0"
     inkscape:pagecheckerboard="true"
     inkscape:deskcolor="#d1d1d1" />
  <g
     id="g1"
     inkscape:groupmode="layer"
     inkscape:label="1"
     transform="translate(-36.175114,-190.46987)">
    <path
       id="path4"
       d="M 1469.1602,1443.5508 1195.6406,893.41016 c -80.5312,72.03125 -151.4023,198.41014 -147.4492,301.96094 l 82.7578,163.1992 c 2.9727,5.8594 8.0391,10.3789 14.1992,12.668 l 291.5,108.4414 c 22.2032,8.2617 43.0625,-14.918 32.5118,-36.1289 z M 978.31641,1142.9102 c -0.70313,1.0312 -1.35157,2.1289 -1.92969,3.3086 l -103.83984,210.4531 c -2.94922,5.9765 -8.07422,10.6094 -14.32422,12.9375 l -296.8711,110.4297 c -22.07422,8.2226 -42.89453,-14.668 -32.64062,-35.8672 L 969.38672,533 c 9.45703,-19.55078 37.26168,-19.71094 46.93358,-0.26172 l 169.9688,341.88281 c -93.1993,66.61719 -166.1797,159.71871 -207.97269,268.28911"
       style="fill:#ffffff;fill-opacity:1;fill-rule:nonzero;stroke:none"
       transform="matrix(0.10353817,0,0,0.10353817,-17.50943,137.34105)"
       clip-path="url(#clipPath20)" />
    <g
       id="g6">
      <g
         id="g7">
        <path
           id="path7"
           d="M 32.610983,-6.9231352 H 17.345358 l -2.265625,6.92187526 H 0.001607 L 16.751608,-45.798137 h 16.5625 L 50.001609,-0.00125994 H 34.860983 Z m -3.5,-10.7968758 -4.140625,-12.75 -4.140625,12.75 z m 38.144533,-28.078126 v 25.812501 c 0,2.117188 0.460938,3.789063 1.390625,5.015625 0.925781,1.230469 2.425781,1.843751 4.5,1.843751 2.070313,0 3.601563,-0.613282 4.59375,-1.843751 0.988282,-1.226562 1.484376,-2.898437 1.484376,-5.015625 v -25.812501 h 14.296875 v 25.812501 c 0,4.355469 -0.90625,8.074219 -2.71875,11.1562507 -1.8125,3.0859376 -4.292969,5.402344 -7.4375,6.9531253 -3.148438,1.55468754 -6.664063,2.32812508 -10.546876,2.32812508 -3.875,0 -7.3125,-0.77343754 -10.3125,-2.32812508 -3,-1.5507813 -5.34375,-3.8593752 -7.03125,-6.9218753 C 53.794578,-11.860635 52.95864,-15.587198 52.95864,-19.985636 v -25.812501 z m 51.546874,0 c 4.78907,0 8.98438,0.96875 12.57813,2.90625 3.60156,1.9375 6.375,4.636719 8.3125,8.093751 1.94531,3.449219 2.92187,7.371094 2.92187,11.765625 0,4.355469 -0.97656,8.28125 -2.92187,11.781251 -1.9375,3.4921872 -4.71094,6.2421873 -8.3125,8.2499999 -3.59375,2.0000001 -7.78906,3.00000016 -12.57813,3.00000016 H 99.724267 V -45.798137 Z m -1.29687,32.984377 c 3.23828,0 5.80469,-0.878907 7.70312,-2.640626 1.89453,-1.769531 2.84375,-4.296875 2.84375,-7.578125 0,-3.269531 -0.94922,-5.789063 -2.84375,-7.5625 -1.89843,-1.769532 -4.46484,-2.65625 -7.70312,-2.65625 h -3.42188 v 20.437501 z m 66.23828,-32.984377 v 11.390626 h -12.15625 v 34.40625106 h -14.375 V -34.407511 H 145.1813 v -11.390626 z m 26.90235,45.79687706 -8.60938,-16.43750106 h -0.0625 V -0.00125994 H 187.6149 V -45.798137 h 21.34375 c 3.70703,0 6.875,0.65625 9.5,1.96875 2.63281,1.3125 4.60937,3.105469 5.92187,5.375 1.32032,2.261719 1.98438,4.812501 1.98438,7.656251 0,3.0625 -0.85547,5.78125 -2.5625,8.15625 -1.69922,2.375 -4.14844,4.078125 -7.34375,5.109375 l 9.96875,17.53125106 z M 201.97427,-26.001261 h 5.6875 c 1.38281,0 2.42188,-0.3125 3.10938,-0.9375 0.6875,-0.625 1.03125,-1.609375 1.03125,-2.953125 0,-1.207031 -0.35547,-2.15625 -1.0625,-2.84375 -0.71094,-0.6875 -1.73438,-1.03125 -3.07813,-1.03125 h -5.6875 z m 58.34375,19.0781258 H 245.0524 l -2.26563,6.92187526 h -15.07812 l 16.75,-45.79687706 h 16.5625 l 16.6875,45.79687706 h -15.14063 z m -3.5,-10.7968758 -4.14062,-12.75 -4.14063,12.75 z m 53.28907,17.71875106 -8.40625,-11.90625006 -6.98438,11.90625006 h -16.375 L 293.41959,-23.610636 277.70084,-45.798137 h 17.01562 l 8.07813,11.453126 6.73437,-11.453126 h 16.35938 l -14.8125,23.156251 16.04687,22.64062606 z m 0,0"
           style="fill:#ffffff;fill-opacity:1;fill-rule:nonzero;stroke:none"
           aria-label="AUDTRAX"
           transform="translate(139.21714,251.00126)" />
      </g>
    </g>
    <g
       id="g8">
      <g
         id="g9">
        <path
           id="path9"
           d="m 4.764405,0.10840939 c -0.7421875,0 -1.4023438,-0.12890626 -1.9843751,-0.39062502 C 2.2058111,-0.54002814 1.7526861,-0.89940315 1.4206548,-1.3603407 1.0847173,-1.8290907 0.91284233,-2.364247 0.90502983,-2.9697157 H 2.4675299 c 0.050781,0.5234375 0.265625,0.9609375 0.640625,1.3125 0.3828125,0.3554688 0.9375001,0.53125 1.6562501,0.53125 0.6953125,0 1.2421875,-0.171875 1.6406251,-0.515625 0.40625,-0.34375 0.609375,-0.7851563 0.609375,-1.328125 0,-0.4257813 -0.1210938,-0.7734376 -0.359375,-1.0468751 -0.2421875,-0.2695312 -0.5390626,-0.4726563 -0.8906251,-0.609375 -0.34375,-0.1328125 -0.8125,-0.2851563 -1.40625,-0.453125 -0.7421876,-0.1875 -1.3359376,-0.375 -1.7812501,-0.5625001 -0.4375,-0.1953125 -0.8203125,-0.5 -1.1406251,-0.90625 -0.3125,-0.4140625 -0.46874997,-0.96875 -0.46874997,-1.6562501 0,-0.6132812 0.15624997,-1.15625 0.46874997,-1.625 0.3125001,-0.46875 0.7421876,-0.828125 1.2968751,-1.078125 0.5625,-0.257813 1.2070313,-0.390625 1.9375001,-0.390625 1.0390625,0 1.8945313,0.261719 2.5625001,0.78125 0.6640625,0.5234375 1.046875,1.2148437 1.140625,2.078125 h -1.609375 c -0.054687,-0.4257812 -0.2773438,-0.8007813 -0.6718751,-1.125 -0.3984375,-0.3203125 -0.9179687,-0.484375 -1.5625,-0.484375 -0.6171875,0 -1.1171876,0.15625 -1.5000001,0.46875 -0.375,0.3125 -0.5625,0.7578125 -0.5625,1.328125 0,0.4062501 0.1132812,0.7421876 0.34375,1.0000001 0.2265625,0.25 0.5078125,0.4453125 0.84375,0.578125 0.3320313,0.125 0.8046876,0.2773438 1.4218751,0.453125 0.7265625,0.1992188 1.3164063,0.3984375 1.7656251,0.5937501 0.4453125,0.1992187 0.8320313,0.5078125 1.15625,0.921875 0.3203125,0.40625 0.484375,0.9609375 0.484375,1.6562501 0,0.5546875 -0.1484375,1.0703125 -0.4375,1.546875 -0.2929687,0.4804688 -0.71875,0.87109381 -1.28125,1.17187507 C 6.201905,-0.03612187 5.5339363,0.10840939 4.764405,0.10840939 Z M 12.080812,-9.969716 v 3.7343751 h 4.0625 v 1.1875001 h -4.0625 v 3.8437501 h 4.546875 V -9.6561536e-4 H 10.627686 V -11.172841 h 6.000001 v 1.203125 z m 8.175781,-1.1875 v 7.0625002 c 0,0.9921876 0.238281,1.7265626 0.71875,2.2031251 0.488281,0.4804688 1.164063,0.71875 2.03125,0.71875 0.851563,0 1.519532,-0.2382812 2,-0.71875 0.488282,-0.4765625 0.734375,-1.2109375 0.734375,-2.2031251 v -7.0625002 h 1.453125 v 7.0468752 c 0,0.9296876 -0.1875,1.7109376 -0.5625,2.3437501 -0.367187,0.6367188 -0.867187,1.10937506 -1.5,1.42187507 -0.636718,0.30468751 -1.351562,0.45312502 -2.140625,0.45312502 -0.792969,0 -1.507812,-0.14843751 -2.140625,-0.45312502 -0.636719,-0.31250001 -1.136719,-0.78515627 -1.5,-1.42187507 -0.367187,-0.6328125 -0.546875,-1.4140625 -0.546875,-2.3437501 v -7.0468752 z m 20.242188,8.6718753 h -4.875 l -0.890625,2.48437508464 h -1.53125 L 37.233156,-11.094716 h 1.671875 l 4.015626,11.09375038464 h -1.53125 z m -0.421875,-1.1718751 -2.015625,-5.6406252 -2.015625,5.6406252 z m 6.035157,-7.5000002 v 7.0625002 c 0,0.9921876 0.238281,1.7265626 0.71875,2.2031251 0.488281,0.4804688 1.164063,0.71875 2.03125,0.71875 0.851563,0 1.519531,-0.2382812 2,-0.71875 0.488281,-0.4765625 0.734375,-1.2109375 0.734375,-2.2031251 v -7.0625002 h 1.453125 v 7.0468752 c 0,0.9296876 -0.1875,1.7109376 -0.5625,2.3437501 -0.367187,0.6367188 -0.867187,1.10937506 -1.5,1.42187507 -0.636719,0.30468751 -1.351562,0.45312502 -2.140625,0.45312502 -0.792969,0 -1.507812,-0.14843751 -2.140625,-0.45312502 -0.636719,-0.31250001 -1.136719,-0.78515627 -1.5,-1.42187507 -0.367188,-0.6328125 -0.546875,-1.4140625 -0.546875,-2.3437501 v -7.0468752 z m 12.847657,0 c 1.21875,0 2.269531,0.230469 3.15625,0.6875 0.894531,0.449219 1.578125,1.09375 2.046875,1.9375 0.476562,0.8437501 0.71875,1.8398439 0.71875,2.9843752 0,1.1367188 -0.242188,2.125 -0.71875,2.9687501 -0.46875,0.8359375 -1.152344,1.4765625 -2.046875,1.92187506 -0.886719,0.43750002 -1.9375,0.65625002464 -3.15625,0.65625002464 H 55.49097 V -11.157216 Z m 0,9.9531253 c 1.4375,0 2.535156,-0.3789062 3.296875,-1.140625 0.757812,-0.7578125 1.140625,-1.8281251 1.140625,-3.2031251 0,-1.3828126 -0.386719,-2.4687501 -1.15625,-3.2500002 -0.761719,-0.78125 -1.855469,-1.171875 -3.28125,-1.171875 h -2.015625 v 8.7656253 z m 9.296875,-9.9531253 V -9.6561536e-4 H 66.80347 V -11.157216 Z m 9.339844,0 v 1.1875 h -3.03125 v 9.96875038464 h -1.46875 V -9.969716 h -3.046875 v -1.1875 z M 84.44019,0.10840939 c -1.03125,0 -1.976563,-0.23828126 -2.828126,-0.71875003 -0.855468,-0.48828126 -1.53125,-1.16406256 -2.03125,-2.03125006 -0.492187,-0.8750001 -0.734375,-1.8515626 -0.734375,-2.9375001 0,-1.0937501 0.242188,-2.0703126 0.734375,-2.9375002 0.5,-0.875 1.175782,-1.550781 2.03125,-2.03125 0.851563,-0.488281 1.796876,-0.734375 2.828126,-0.734375 1.050781,0 2.003906,0.246094 2.859375,0.734375 0.851562,0.480469 1.523437,1.1523437 2.015625,2.015625 0.488281,0.8671876 0.734375,1.8515626 0.734375,2.9531252 0,1.09375 -0.246094,2.0742188 -0.734375,2.9375001 -0.492188,0.8671875 -1.164063,1.5429688 -2.015625,2.03125006 -0.855469,0.48046877 -1.808594,0.71875003 -2.859375,0.71875003 z m 0,-1.26562509 c 0.78125,0 1.484375,-0.1757812 2.109375,-0.53125 0.625,-0.3632813 1.113281,-0.8789063 1.46875,-1.5468751 0.363281,-0.6757812 0.546875,-1.4570313 0.546875,-2.34375 0,-0.8945313 -0.183594,-1.6757814 -0.546875,-2.3437501 -0.355469,-0.6640626 -0.84375,-1.1796876 -1.46875,-1.5468751 -0.617188,-0.3632813 -1.320313,-0.546875 -2.109375,-0.546875 -0.78125,0 -1.484376,0.1835937 -2.109376,0.546875 -0.617187,0.3671875 -1.105468,0.8828125 -1.46875,1.5468751 -0.355468,0.6679687 -0.53125,1.4492188 -0.53125,2.3437501 0,0.8867187 0.175782,1.6679688 0.53125,2.34375 0.363282,0.6679688 0.859375,1.1835938 1.484375,1.5468751 0.625,0.3554688 1.320313,0.53125 2.093751,0.53125 z M 97.84644,-9.6561536e-4 95.19019,-4.5634658 H 93.424565 V -9.6561536e-4 H 91.97144 V -11.157216 h 3.59375 c 0.84375,0 1.554688,0.148437 2.140625,0.4375 0.582031,0.292969 1.015625,0.683594 1.296875,1.171875 0.289063,0.4921875 0.4375,1.046875 0.4375,1.6718751 0,0.7734375 -0.226562,1.453125 -0.671875,2.046875 -0.4375,0.5859376 -1.101562,0.9687501 -1.984375,1.1562501 l 2.796875,4.67187518464 z M 93.424565,-5.7353409 h 2.140625 c 0.789063,0 1.382813,-0.1914062 1.78125,-0.578125 0.394531,-0.3828125 0.59375,-0.90625 0.59375,-1.5625 0,-0.6562501 -0.199219,-1.1640626 -0.59375,-1.5312501 -0.386719,-0.3632813 -0.980469,-0.546875 -1.78125,-0.546875 h -2.140625 z m 16.015625,-5.4218751 c 1.21875,0 2.26953,0.230469 3.15625,0.6875 0.89453,0.449219 1.57813,1.09375 2.04688,1.9375 0.47656,0.8437501 0.71875,1.8398439 0.71875,2.9843752 0,1.1367188 -0.24219,2.125 -0.71875,2.9687501 -0.46875,0.8359375 -1.15235,1.4765625 -2.04688,1.92187506 -0.88672,0.43750002 -1.9375,0.65625002464 -3.15625,0.65625002464 h -3.46875 V -11.157216 Z m 0,9.9531253 c 1.4375,0 2.53516,-0.3789062 3.29688,-1.140625 0.75781,-0.7578125 1.14062,-1.8281251 1.14062,-3.2031251 0,-1.3828126 -0.38672,-2.4687501 -1.15625,-3.2500002 -0.76172,-0.78125 -1.85547,-1.171875 -3.28125,-1.171875 h -2.01562 v 8.7656253 z m 9.29688,-8.7656253 v 3.7343751 h 4.0625 v 1.1875001 h -4.0625 v 3.8437501 h 4.54687 v 1.20312508464 h -6 V -11.172841 h 6 v 1.203125 z m 16.60547,4.2187501 c 0.40625,0.074219 0.77343,0.2460938 1.10937,0.5156251 0.34375,0.2617187 0.61328,0.5898437 0.8125,0.984375 0.19531,0.3984375 0.29688,0.8203125 0.29688,1.2656251 0,0.5625 -0.14844,1.0742188 -0.4375,1.53125 -0.29297,0.4492188 -0.71485,0.80468756 -1.26563,1.06250007 -0.54297,0.26171876 -1.1875,0.39062501464 -1.9375,0.39062501464 h -4.15625 V -11.157216 h 4 c 0.75781,0 1.40625,0.125 1.9375,0.375 0.53125,0.25 0.92578,0.589844 1.1875,1.015625 0.26953,0.4296875 0.40625,0.9140625 0.40625,1.453125 0,0.6562501 -0.17969,1.2031251 -0.53125,1.6406251 -0.35547,0.4296875 -0.82812,0.734375 -1.42187,0.921875 z m -4.125,-0.59375 h 2.45312 c 0.67578,0 1.20313,-0.15625 1.57813,-0.46875 0.375,-0.3203125 0.5625,-0.765625 0.5625,-1.3281251 0,-0.5625 -0.1875,-1.0039062 -0.5625,-1.328125 -0.375,-0.3203125 -0.91407,-0.484375 -1.60938,-0.484375 h -2.42187 z m 2.57812,5.1406252 c 0.72656,0 1.28906,-0.1640625 1.6875,-0.5 0.40625,-0.34375 0.60938,-0.8203125 0.60938,-1.4375 0,-0.6132813 -0.21485,-1.0976563 -0.64063,-1.4531251 -0.42969,-0.3632813 -0.99609,-0.546875 -1.70312,-0.546875 h -2.53125 v 3.9375001 z m 10.82031,1.31250009 c -1.03125,0 -1.97656,-0.23828126 -2.82812,-0.71875003 -0.85547,-0.48828126 -1.53125,-1.16406256 -2.03125,-2.03125006 -0.49219,-0.8750001 -0.73438,-1.8515626 -0.73438,-2.9375001 0,-1.0937501 0.24219,-2.0703126 0.73438,-2.9375002 0.5,-0.875 1.17578,-1.550781 2.03125,-2.03125 0.85156,-0.488281 1.79687,-0.734375 2.82812,-0.734375 1.05078,0 2.00391,0.246094 2.85938,0.734375 0.85156,0.480469 1.52344,1.1523437 2.01562,2.015625 0.48828,0.8671876 0.73438,1.8515626 0.73438,2.9531252 0,1.09375 -0.2461,2.0742188 -0.73438,2.9375001 -0.49218,0.8671875 -1.16406,1.5429688 -2.01562,2.03125006 -0.85547,0.48046877 -1.8086,0.71875003 -2.85938,0.71875003 z m 0,-1.26562509 c 0.78125,0 1.48438,-0.1757812 2.10938,-0.53125 0.625,-0.3632813 1.11328,-0.8789063 1.46875,-1.5468751 0.36328,-0.6757812 0.54687,-1.4570313 0.54687,-2.34375 0,-0.8945313 -0.18359,-1.6757814 -0.54687,-2.3437501 -0.35547,-0.6640626 -0.84375,-1.1796876 -1.46875,-1.5468751 -0.61719,-0.3632813 -1.32031,-0.546875 -2.10938,-0.546875 -0.78125,0 -1.48437,0.1835937 -2.10937,0.546875 -0.61719,0.3671875 -1.10547,0.8828125 -1.46875,1.5468751 -0.35547,0.6679687 -0.53125,1.4492188 -0.53125,2.3437501 0,0.8867187 0.17578,1.6679688 0.53125,2.34375 0.36328,0.6679688 0.85937,1.1835938 1.48437,1.5468751 0.625,0.3554688 1.32032,0.53125 2.09375,0.53125 z m 8.98438,-0.03125 h 3.90625 v 1.18750008464 h -5.35938 V -11.157216 h 1.45313 z m 8.98828,1.29687509 c -0.74219,0 -1.40234,-0.12890626 -1.98437,-0.39062502 -0.57422,-0.25781251 -1.02735,-0.61718752 -1.35938,-1.07812507 -0.33594,-0.46875 -0.50781,-1.0039063 -0.51562,-1.609375 h 1.5625 c 0.0508,0.5234375 0.26562,0.9609375 0.64062,1.3125 0.38281,0.3554688 0.9375,0.53125 1.65625,0.53125 0.69531,0 1.24219,-0.171875 1.64063,-0.515625 0.40625,-0.34375 0.60937,-0.7851563 0.60937,-1.328125 0,-0.4257813 -0.12109,-0.7734376 -0.35937,-1.0468751 -0.24219,-0.2695312 -0.53907,-0.4726563 -0.89063,-0.609375 -0.34375,-0.1328125 -0.8125,-0.2851563 -1.40625,-0.453125 -0.74219,-0.1875 -1.33594,-0.375 -1.78125,-0.5625001 -0.4375,-0.1953125 -0.82031,-0.5 -1.14062,-0.90625 -0.3125,-0.4140625 -0.46875,-0.96875 -0.46875,-1.6562501 0,-0.6132812 0.15625,-1.15625 0.46875,-1.625 0.3125,-0.46875 0.74218,-0.828125 1.29687,-1.078125 0.5625,-0.257813 1.20703,-0.390625 1.9375,-0.390625 1.03906,0 1.89453,0.261719 2.5625,0.78125 0.66406,0.5234375 1.04688,1.2148437 1.14063,2.078125 h -1.60938 c -0.0547,-0.4257812 -0.27734,-0.8007813 -0.67187,-1.125 -0.39844,-0.3203125 -0.91797,-0.484375 -1.5625,-0.484375 -0.61719,0 -1.11719,0.15625 -1.5,0.46875 -0.375,0.3125 -0.5625,0.7578125 -0.5625,1.328125 0,0.4062501 0.11328,0.7421876 0.34375,1.0000001 0.22656,0.25 0.50781,0.4453125 0.84375,0.578125 0.33203,0.125 0.80468,0.2773438 1.42187,0.453125 0.72656,0.1992188 1.31641,0.3984375 1.76563,0.5937501 0.44531,0.1992187 0.83203,0.5078125 1.15625,0.921875 0.32031,0.40625 0.48437,0.9609375 0.48437,1.6562501 0,0.5546875 -0.14844,1.0703125 -0.4375,1.546875 -0.29297,0.4804688 -0.71875,0.87109381 -1.28125,1.17187507 -0.5625,0.29296876 -1.23047,0.43750002 -2,0.43750002 z m 10.91016,0 c -1.03125,0 -1.97657,-0.23828126 -2.82813,-0.71875003 -0.85547,-0.48828126 -1.53125,-1.16406256 -2.03125,-2.03125006 -0.49219,-0.8750001 -0.73437,-1.8515626 -0.73437,-2.9375001 0,-1.0937501 0.24218,-2.0703126 0.73437,-2.9375002 0.5,-0.875 1.17578,-1.550781 2.03125,-2.03125 0.85156,-0.488281 1.79688,-0.734375 2.82813,-0.734375 1.05078,0 2.0039,0.246094 2.85937,0.734375 0.85156,0.480469 1.52344,1.1523437 2.01563,2.015625 0.48828,0.8671876 0.73437,1.8515626 0.73437,2.9531252 0,1.09375 -0.24609,2.0742188 -0.73437,2.9375001 -0.49219,0.8671875 -1.16407,1.5429688 -2.01563,2.03125006 -0.85547,0.48046877 -1.80859,0.71875003 -2.85937,0.71875003 z m 0,-1.26562509 c 0.78125,0 1.48437,-0.1757812 2.10937,-0.53125 0.625,-0.3632813 1.11328,-0.8789063 1.46875,-1.5468751 0.36328,-0.6757812 0.54688,-1.4570313 0.54688,-2.34375 0,-0.8945313 -0.1836,-1.6757814 -0.54688,-2.3437501 -0.35547,-0.6640626 -0.84375,-1.1796876 -1.46875,-1.5468751 -0.61719,-0.3632813 -1.32031,-0.546875 -2.10937,-0.546875 -0.78125,0 -1.48438,0.1835937 -2.10938,0.546875 -0.61719,0.3671875 -1.10547,0.8828125 -1.46875,1.5468751 -0.35547,0.6679687 -0.53125,1.4492188 -0.53125,2.3437501 0,0.8867187 0.17578,1.6679688 0.53125,2.34375 0.36328,0.6679688 0.85938,1.1835938 1.48438,1.5468751 0.625,0.3554688 1.32031,0.53125 2.09375,0.53125 z m 0,0"
           style="fill:#b4b4b4;fill-opacity:1;fill-rule:nonzero;stroke:none"
           aria-label="SEU AUDITOR DE BOLSO"
           transform="translate(216.93481,278.03222)" />
      </g>
    </g>
    <g
       id="g10">
      <path
         id="path10"
         d="m 27.131336,164.4399 h 74.660024 v 75.74768 H 27.131336 Z"
         style="fill:#000000;fill-opacity:0;fill-rule:nonzero;stroke:none"
         transform="matrix(1.3333333,0,0,-1.3333333,0,510.71997)" />
    </g>
  </g>
</svg>
