<?xml version="1.0" encoding="UTF-8" standalone="no"?>
<!-- Created with Inkscape (http://www.inkscape.org/) -->

<svg
   version="1.1"
   id="svg1"
   width="484.0238"
   height="491.07516"
   viewBox="0 0 484.0238 491.07516"
   xmlns="http://www.w3.org/2000/svg"
   xmlns:svg="http://www.w3.org/2000/svg">
  <defs
     id="defs1">
    <clipPath
       clipPathUnits="userSpaceOnUse"
       id="clipPath28">
      <path
         d="M 502.63484,504.28934 H 1495.6813 V 1497.3358 H 502.63484 Z"
         clip-rule="evenodd"
         id="path28"
         style="stroke-width:0.63555" />
    </clipPath>
  </defs>
  <g
     id="g19"
     transform="translate(-1567.9881,-4.4624093)">
    <path
       id="path23"
       d="M 1469.1602,1443.5508 1195.6406,893.41016 c -80.5312,72.03125 -151.4023,198.41014 -147.4492,301.96094 l 82.7578,163.1992 c 2.9727,5.8594 8.0391,10.3789 14.1992,12.668 l 291.5,108.4414 c 22.2032,8.2617 43.0625,-14.918 32.5118,-36.1289 z M 978.31641,1142.9102 c -0.70313,1.0312 -1.35157,2.1289 -1.92969,3.3086 l -103.83984,210.4531 c -2.94922,5.9765 -8.07422,10.6094 -14.32422,12.9375 l -296.8711,110.4297 c -22.07422,8.2226 -42.89453,-14.668 -32.64062,-35.8672 L 969.38672,533 c 9.45703,-19.55078 37.26168,-19.71094 46.93358,-0.26172 l 169.9688,341.88281 c -93.1993,66.61719 -166.1797,159.71871 -207.97269,268.28911"
       style="fill:#ffffff;fill-opacity:1;fill-rule:nonzero;stroke:none"
       transform="matrix(0.50350111,0,0,0.50350111,1306.9228,-253.91024)"
       clip-path="url(#clipPath28)" />
    <g
       id="g25">
      <path
         id="path26"
         d="M 5.991068,11.386807 H 369.00892 V 379.69318 H 5.991068 Z"
         style="fill:#000000;fill-opacity:0;fill-rule:nonzero;stroke:none"
         transform="matrix(1.3333333,0,0,-1.3333333,1560,510.71997)" />
    </g>
  </g>
</svg>
