<?xml version="1.0" encoding="UTF-8" standalone="no"?>
<!-- Created with Inkscape (http://www.inkscape.org/) -->

<svg
   version="1.1"
   id="svg1"
   width="484.57034"
   height="68.5"
   viewBox="0 0 484.57034 68.5"
   xmlns="http://www.w3.org/2000/svg"
   xmlns:svg="http://www.w3.org/2000/svg">
  <defs
     id="defs1">
    <clipPath
       clipPathUnits="userSpaceOnUse"
       id="clipPath4">
      <path
         d="M 0,0 H 1519 V 422 H 0 Z"
         transform="matrix(0.21602244,0,0,0.21602244,-0.11976806,-68.066783)"
         id="path4" />
    </clipPath>
  </defs>
  <g
     id="g1"
     transform="translate(-5.6171875,-214.76172)">
    <path
       d="M 32.603626,-6.9190253 H 17.330163 L 15.072898,4.4403724e-4 H -1.5394215e-4 L 16.750025,-45.788301 H 33.31034 L 49.997232,4.4403724e-4 H 34.860892 Z M 29.1017,-17.720148 l -4.134805,-12.74195 -4.134805,12.74195 z m 38.157287,-28.068153 v 25.800339 c 0,2.117505 0.464111,3.791996 1.392332,5.020834 0.928222,1.223565 2.426034,1.835347 4.493436,1.835347 2.072677,0 3.607407,-0.611782 4.598916,-1.835347 0.991509,-1.228838 1.487264,-2.903329 1.487264,-5.020834 v -25.800339 h 14.292501 v 25.800339 c 0,4.361586 -0.907125,8.079746 -2.721376,11.1597538 -1.808977,3.0800077 -4.287751,5.3979245 -7.43632,6.9511133 -3.151207,1.5558258 -6.663681,2.33110172 -10.537424,2.33110172 -3.881653,0 -7.325566,-0.77527592 -10.326464,-2.33110172 -2.995624,-1.5531888 -5.334637,-3.8605576 -7.014401,-6.9194694 -1.682402,-3.0589117 -2.520965,-6.7876197 -2.520965,-11.1913977 v -25.800339 z m 51.550573,0 c 4.78087,0 8.97105,0.970414 12.57318,2.91124 3.5995,1.935553 6.37098,4.627923 8.31181,8.079747 1.94082,3.45446 2.91124,7.378306 2.91124,11.771536 0,4.353675 -0.97042,8.277521 -2.91124,11.771536 -1.94083,3.4966529 -4.71231,6.2443995 -8.31181,8.2485141 -3.60213,2.0041146 -7.79231,3.00617193724 -12.57318,3.00617193724 H 99.728281 V -45.788301 Z m -1.2974,32.983507 c 3.23295,0 5.79611,-0.880755 7.68947,-2.64754 1.89864,-1.77206 2.84795,-4.295662 2.84795,-7.573444 0,-3.275145 -0.94931,-5.79611 -2.84795,-7.562896 -1.89336,-1.772059 -4.45652,-2.658089 -7.68947,-2.658089 h -3.42809 v 20.441969 z m 66.22544,-32.983507 v 11.381262 H 171.57579 V 4.4403724e-4 H 157.22 V -34.407039 H 145.18476 V -45.788301 Z M 210.64548,4.4403724e-4 202.03833,-16.433296 h -0.0633 V 4.4403724e-4 H 187.61925 V -45.788301 h 21.33855 c 3.71289,0 6.88255,0.659248 9.51427,1.972471 2.62908,1.315859 4.60155,3.106378 5.91741,5.368917 1.31323,2.257266 1.97247,4.809876 1.97247,7.657828 0,3.066823 -0.85438,5.785562 -2.56315,8.153582 -1.7035,2.370657 -4.15063,4.071517 -7.34139,5.105218 L 226.42524,4.4403724e-4 Z M 201.97504,-26.000306 h 5.69591 c 1.37651,0 2.41021,-0.311165 3.1011,-0.938769 0.68826,-0.624968 1.0337,-1.605929 1.0337,-2.942885 0,-1.207742 -0.35599,-2.15706 -1.06534,-2.847952 -0.71199,-0.688255 -1.73514,-1.033701 -3.06946,-1.033701 h -5.69591 z m 58.3382,19.0812807 H 245.03977 L 242.78251,4.4403724e-4 H 227.70946 L 244.45964,-45.788301 h 16.56031 L 277.70684,4.4403724e-4 H 262.5705 Z m -3.50193,-10.8011227 -4.1348,-12.74195 -4.13481,12.74195 z M 310.10494,4.4403724e-4 301.6982,-11.897668 294.71545,4.4403724e-4 H 278.345 L 293.41805,-23.605916 277.70157,-45.788301 h 17.01388 l 8.07974,11.444549 6.72961,-11.444549 h 16.3599 l -14.80935,23.152798 16.04347,22.63594703724 z m 0,0"
       style="fill:#ffffff;fill-opacity:1;fill-rule:nonzero;stroke:none"
       aria-label="AUDTRAX"
       transform="matrix(1.4813275,0,0,1.4813275,5.6174155,282.58919)"
       clip-path="url(#clipPath4)"
       id="path5" />
  </g>
</svg>
